<?xml version="1.0" standalone="yes"?>

<svg version="1.1" viewBox="0.0 0.0 960.0 720.0" fill="none" stroke="none" stroke-linecap="square" stroke-miterlimit="10" xmlns="http://www.w3.org/2000/svg" xmlns:xlink="http://www.w3.org/1999/xlink"><clipPath id="p.0"><path d="m0 0l960.0 0l0 720.0l-960.0 0l0 -720.0z" clip-rule="nonzero"></path></clipPath><g clip-path="url(#p.0)"><path fill="#000000" fill-opacity="0.0" d="m0 0l960.0 0l0 720.0l-960.0 0z" fill-rule="nonzero"></path><path fill="#ffffff" d="m-378.03018 152.94226l0 0c0 -26.118286 22.131927 -47.291344 49.433075 -47.291344l0 0c13.110474 0 25.68396 4.9824677 34.954437 13.851311c9.270508 8.868851 14.478638 20.897583 14.478638 33.440033l0 0c0 26.118286 -22.131958 47.291336 -49.433075 47.291336l0 0c-27.301147 0 -49.433075 -21.17305 -49.433075 -47.291336z" fill-rule="nonzero"></path><path stroke="#ffffff" stroke-width="1.0" stroke-linejoin="round" stroke-linecap="butt" d="m-378.03018 152.94226l0 0c0 -26.118286 22.131927 -47.291344 49.433075 -47.291344l0 0c13.110474 0 25.68396 4.9824677 34.954437 13.851311c9.270508 8.868851 14.478638 20.897583 14.478638 33.440033l0 0c0 26.118286 -22.131958 47.291336 -49.433075 47.291336l0 0c-27.301147 0 -49.433075 -21.17305 -49.433075 -47.291336z" fill-rule="nonzero"></path><path fill="#ffffff" d="m-243.4567 191.79002l0 0c0 -26.118286 22.131943 -47.291336 49.433075 -47.291336l0 0c13.110458 0 25.68396 4.9824677 34.954453 13.851318c9.270508 8.868835 14.478622 20.897583 14.478622 33.440018l0 0c0 26.118286 -22.131943 47.291336 -49.433075 47.291336l0 0c-27.301132 0 -49.433075 -21.17305 -49.433075 -47.291336z" fill-rule="nonzero"></path><path stroke="#ffffff" stroke-width="1.0" stroke-linejoin="round" stroke-linecap="butt" d="m-243.4567 191.79002l0 0c0 -26.118286 22.131943 -47.291336 49.433075 -47.291336l0 0c13.110458 0 25.68396 4.9824677 34.954453 13.851318c9.270508 8.868835 14.478622 20.897583 14.478622 33.440018l0 0c0 26.118286 -22.131943 47.291336 -49.433075 47.291336l0 0c-27.301132 0 -49.433075 -21.17305 -49.433075 -47.291336z" fill-rule="nonzero"></path><path fill="#ffffff" d="m-394.80185 302.0761l0 0c0 -26.118286 22.131958 -47.291336 49.433075 -47.291336l0 0c13.110474 0 25.68396 4.9824677 34.954468 13.851303c9.270508 8.868866 14.478607 20.897583 14.478607 33.440033l0 0c0 26.118286 -22.131927 47.29135 -49.433075 47.29135l0 0c-27.301117 0 -49.433075 -21.173065 -49.433075 -47.29135z" fill-rule="nonzero"></path><path stroke="#ffffff" stroke-width="1.0" stroke-linejoin="round" stroke-linecap="butt" d="m-394.80185 302.0761l0 0c0 -26.118286 22.131958 -47.291336 49.433075 -47.291336l0 0c13.110474 0 25.68396 4.9824677 34.954468 13.851303c9.270508 8.868866 14.478607 20.897583 14.478607 33.440033l0 0c0 26.118286 -22.131927 47.29135 -49.433075 47.29135l0 0c-27.301117 0 -49.433075 -21.173065 -49.433075 -47.29135z" fill-rule="nonzero"></path><path fill="#ffffff" d="m-127.82546 311.76904l0 0c0 -26.118286 22.131943 -47.29135 49.433075 -47.29135l0 0c13.110466 0 25.683956 4.9824524 34.954456 13.851318c9.2705 8.868835 14.478611 20.897583 14.478611 33.440033l0 0c0 26.118286 -22.131939 47.29132 -49.433067 47.29132l0 0c-27.301132 0 -49.433075 -21.173035 -49.433075 -47.29132z" fill-rule="nonzero"></path><path stroke="#ffffff" stroke-width="1.0" stroke-linejoin="round" stroke-linecap="butt" d="m-127.82546 311.76904l0 0c0 -26.118286 22.131943 -47.29135 49.433075 -47.29135l0 0c13.110466 0 25.683956 4.9824524 34.954456 13.851318c9.2705 8.868835 14.478611 20.897583 14.478611 33.440033l0 0c0 26.118286 -22.131939 47.29132 -49.433067 47.29132l0 0c-27.301132 0 -49.433075 -21.173035 -49.433075 -47.29132z" fill-rule="nonzero"></path><path fill="#ffffff" d="m-279.16534 350.31235l0 0c0 -26.118286 22.131927 -47.29135 49.43306 -47.29135l0 0c13.110458 0 25.68396 4.9824524 34.954453 13.851318c9.270508 8.868835 14.478622 20.897583 14.478622 33.440033l0 0c0 26.118286 -22.131943 47.29132 -49.433075 47.29132l0 0c-27.301132 0 -49.43306 -21.173035 -49.43306 -47.29132z" fill-rule="nonzero"></path><path stroke="#ffffff" stroke-width="1.0" stroke-linejoin="round" stroke-linecap="butt" d="m-279.16534 350.31235l0 0c0 -26.118286 22.131927 -47.29135 49.43306 -47.29135l0 0c13.110458 0 25.68396 4.9824524 34.954453 13.851318c9.270508 8.868835 14.478622 20.897583 14.478622 33.440033l0 0c0 26.118286 -22.131943 47.29132 -49.433075 47.29132l0 0c-27.301132 0 -49.43306 -21.173035 -49.43306 -47.29132z" fill-rule="nonzero"></path><path fill="#ffffff" d="m-288.5643 482.38058l0 0c0 -26.118286 22.131927 -47.29135 49.43306 -47.29135l0 0c13.110474 0 25.68396 4.982483 34.954468 13.851318c9.270493 8.868835 14.478607 20.897583 14.478607 33.440033l0 0c0 26.118286 -22.131943 47.29135 -49.433075 47.29135l0 0c-27.301132 0 -49.43306 -21.173065 -49.43306 -47.29135z" fill-rule="nonzero"></path><path stroke="#ffffff" stroke-width="1.0" stroke-linejoin="round" stroke-linecap="butt" d="m-288.5643 482.38058l0 0c0 -26.118286 22.131927 -47.29135 49.43306 -47.29135l0 0c13.110474 0 25.68396 4.982483 34.954468 13.851318c9.270493 8.868835 14.478607 20.897583 14.478607 33.440033l0 0c0 26.118286 -22.131943 47.29135 -49.433075 47.29135l0 0c-27.301132 0 -49.43306 -21.173065 -49.43306 -47.29135z" fill-rule="nonzero"></path><path fill="#000000" fill-opacity="0.0" d="m-328.5971 200.2336l-16.75592 54.551178" fill-rule="nonzero"></path><path stroke="#ffffff" stroke-width="4.0" stroke-linejoin="round" stroke-linecap="butt" d="m-328.5971 200.2336l-16.75592 54.551178" fill-rule="nonzero"></path><path fill="#000000" fill-opacity="0.0" d="m-279.16403 152.94226l50.173218 5.4173126" fill-rule="nonzero"></path><path stroke="#ffffff" stroke-width="4.0" stroke-linejoin="round" stroke-linecap="butt" d="m-279.16403 152.94226l50.173218 5.4173126" fill-rule="nonzero"></path><path fill="#000000" fill-opacity="0.0" d="m-194.02362 239.08136l-35.716537 63.93701" fill-rule="nonzero"></path><path stroke="#ffffff" stroke-width="4.0" stroke-linejoin="round" stroke-linecap="butt" d="m-194.02362 239.08136l-35.716537 63.93701" fill-rule="nonzero"></path><path fill="#000000" fill-opacity="0.0" d="m-159.06917 225.23006l45.732285 53.10237" fill-rule="nonzero"></path><path stroke="#ffffff" stroke-width="4.0" stroke-linejoin="round" stroke-linecap="butt" d="m-159.06917 225.23006l45.732285 53.10237" fill-rule="nonzero"></path><path fill="#000000" fill-opacity="0.0" d="m-229.73228 397.60367l-9.385834 37.480316" fill-rule="nonzero"></path><path stroke="#ffffff" stroke-width="4.0" stroke-linejoin="round" stroke-linecap="butt" d="m-229.73228 397.60367l-9.385834 37.480316" fill-rule="nonzero"></path><path fill="#000000" fill-opacity="0.0" d="m-113.34685 345.20905l-66.96063 5.1023865" fill-rule="nonzero"></path><path stroke="#ffffff" stroke-width="4.0" stroke-linejoin="round" stroke-linecap="butt" d="m-113.34685 345.20905l-66.96063 5.1023865" fill-rule="nonzero"></path><path fill="#000000" fill-opacity="0.0" d="m-113.34685 345.20905l-90.83464 103.71655" fill-rule="nonzero"></path><path stroke="#ffffff" stroke-width="4.0" stroke-linejoin="round" stroke-linecap="butt" d="m-113.34685 345.20905l-90.83464 103.71655" fill-rule="nonzero"></path><path fill="#3c78d8" d="m400.53635 148.61443l0 0c0 -7.4132233 6.009613 -13.422836 13.422821 -13.422836l105.1228 0c3.5599976 0 6.974121 1.4141846 9.491394 3.9314575c2.517273 2.517273 3.9314575 5.931427 3.9314575 9.491379l0 53.68976c0 7.4132233 -6.0095825 13.422836 -13.422852 13.422836l-105.1228 0c-7.413208 0 -13.422821 -6.009613 -13.422821 -13.422836z" fill-rule="nonzero"></path><path stroke="#3c78d8" stroke-width="1.0" stroke-linejoin="round" stroke-linecap="butt" d="m400.53635 148.61443l0 0c0 -7.4132233 6.009613 -13.422836 13.422821 -13.422836l105.1228 0c3.5599976 0 6.974121 1.4141846 9.491394 3.9314575c2.517273 2.517273 3.9314575 5.931427 3.9314575 9.491379l0 53.68976c0 7.4132233 -6.0095825 13.422836 -13.422852 13.422836l-105.1228 0c-7.413208 0 -13.422821 -6.009613 -13.422821 -13.422836z" fill-rule="nonzero"></path><path fill="#3c78d8" d="m480.53873 267.80753l0 0c0 -7.4132385 6.0095825 -13.422852 13.422821 -13.422852l105.1228 0c3.5599976 0 6.974121 1.4141998 9.491394 3.9314575c2.517273 2.517273 3.9314575 5.931427 3.9314575 9.491394l0 53.68976c0 7.413208 -6.0095825 13.422821 -13.422852 13.422821l-105.1228 0c-7.4132385 0 -13.422821 -6.009613 -13.422821 -13.422821z" fill-rule="nonzero"></path><path stroke="#3c78d8" stroke-width="1.0" stroke-linejoin="round" stroke-linecap="butt" d="m480.53873 267.80753l0 0c0 -7.4132385 6.0095825 -13.422852 13.422821 -13.422852l105.1228 0c3.5599976 0 6.974121 1.4141998 9.491394 3.9314575c2.517273 2.517273 3.9314575 5.931427 3.9314575 9.491394l0 53.68976c0 7.413208 -6.0095825 13.422821 -13.422852 13.422821l-105.1228 0c-7.4132385 0 -13.422821 -6.009613 -13.422821 -13.422821z" fill-rule="nonzero"></path><path fill="#3c78d8" d="m323.3248 267.80753l0 0c0 -7.4132385 6.009613 -13.422852 13.422852 -13.422852l105.1228 0c3.559967 0 6.974121 1.4141998 9.491394 3.9314575c2.517273 2.517273 3.9314575 5.931427 3.9314575 9.491394l0 53.68976c0 7.413208 -6.009613 13.422821 -13.422852 13.422821l-105.1228 0c-7.4132385 0 -13.422852 -6.009613 -13.422852 -13.422821z" fill-rule="nonzero"></path><path stroke="#3c78d8" stroke-width="1.0" stroke-linejoin="round" stroke-linecap="butt" d="m323.3248 267.80753l0 0c0 -7.4132385 6.009613 -13.422852 13.422852 -13.422852l105.1228 0c3.559967 0 6.974121 1.4141998 9.491394 3.9314575c2.517273 2.517273 3.9314575 5.931427 3.9314575 9.491394l0 53.68976c0 7.413208 -6.009613 13.422821 -13.422852 13.422821l-105.1228 0c-7.4132385 0 -13.422852 -6.009613 -13.422852 -13.422821z" fill-rule="nonzero"></path><path fill="#3c78d8" d="m288.02716 396.12396l0 0c0 -7.4132385 6.009613 -13.422852 13.422821 -13.422852l105.12283 0c3.559967 0 6.974121 1.4141846 9.491394 3.9314575c2.5172424 2.517273 3.9314575 5.931427 3.9314575 9.491394l0 53.68976c0 7.413208 -6.009613 13.422821 -13.422852 13.422821l-105.12283 0c-7.413208 0 -13.422821 -6.009613 -13.422821 -13.422821z" fill-rule="nonzero"></path><path stroke="#3c78d8" stroke-width="1.0" stroke-linejoin="round" stroke-linecap="butt" d="m288.02716 396.12396l0 0c0 -7.4132385 6.009613 -13.422852 13.422821 -13.422852l105.12283 0c3.559967 0 6.974121 1.4141846 9.491394 3.9314575c2.5172424 2.517273 3.9314575 5.931427 3.9314575 9.491394l0 53.68976c0 7.413208 -6.009613 13.422821 -13.422852 13.422821l-105.12283 0c-7.413208 0 -13.422821 -6.009613 -13.422821 -13.422821z" fill-rule="nonzero"></path><path fill="#3c78d8" d="m129.14043 396.12396l0 0c0 -7.4132385 6.009598 -13.422852 13.422836 -13.422852l105.12282 0c3.559967 0 6.974106 1.4141846 9.491379 3.9314575c2.517273 2.517273 3.9314575 5.931427 3.9314575 9.491394l0 53.68976c0 7.413208 -6.009598 13.422821 -13.422836 13.422821l-105.12282 0c-7.4132385 0 -13.422836 -6.009613 -13.422836 -13.422821z" fill-rule="nonzero"></path><path stroke="#3c78d8" stroke-width="1.0" stroke-linejoin="round" stroke-linecap="butt" d="m129.14043 396.12396l0 0c0 -7.4132385 6.009598 -13.422852 13.422836 -13.422852l105.12282 0c3.559967 0 6.974106 1.4141846 9.491379 3.9314575c2.517273 2.517273 3.9314575 5.931427 3.9314575 9.491394l0 53.68976c0 7.413208 -6.009598 13.422821 -13.422836 13.422821l-105.12282 0c-7.4132385 0 -13.422836 -6.009613 -13.422836 -13.422821z" fill-rule="nonzero"></path><path fill="#3c78d8" d="m288.02814 518.50604l0 0c0 -7.413208 6.009613 -13.422821 13.422852 -13.422821l105.1228 0c3.559967 0 6.974121 1.4141846 9.491394 3.9314575c2.517273 2.517273 3.9314575 5.931427 3.9314575 9.491364l0 53.68976c0 7.413208 -6.009613 13.422852 -13.422852 13.422852l-105.1228 0c-7.4132385 0 -13.422852 -6.0096436 -13.422852 -13.422852z" fill-rule="nonzero"></path><path stroke="#3c78d8" stroke-width="1.0" stroke-linejoin="round" stroke-linecap="butt" d="m288.02814 518.50604l0 0c0 -7.413208 6.009613 -13.422821 13.422852 -13.422821l105.1228 0c3.559967 0 6.974121 1.4141846 9.491394 3.9314575c2.517273 2.517273 3.9314575 5.931427 3.9314575 9.491364l0 53.68976c0 7.413208 -6.009613 13.422852 -13.422852 13.422852l-105.1228 0c-7.4132385 0 -13.422852 -6.0096436 -13.422852 -13.422852z" fill-rule="nonzero"></path><path fill="#000000" fill-opacity="0.0" d="m466.5206 215.72702l-77.19687 38.645676" fill-rule="nonzero"></path><path stroke="#3c78d8" stroke-width="4.0" stroke-linejoin="round" stroke-linecap="butt" d="m466.5206 215.72702l-77.19687 38.645676" fill-rule="nonzero"></path><path fill="#000000" fill-opacity="0.0" d="m466.5206 215.72702l79.99997 38.645676" fill-rule="nonzero"></path><path stroke="#3c78d8" stroke-width="4.0" stroke-linejoin="round" stroke-linecap="butt" d="m466.5206 215.72702l79.99997 38.645676" fill-rule="nonzero"></path><path fill="#000000" fill-opacity="0.0" d="m546.52295 334.9201l0 0" fill-rule="nonzero"></path><path stroke="#ffffff" stroke-width="4.0" stroke-linejoin="round" stroke-linecap="butt" d="m546.52295 334.9201l0 0" fill-rule="nonzero"></path><path fill="#000000" fill-opacity="0.0" d="m389.30905 334.9201l-35.307068 47.77954" fill-rule="nonzero"></path><path stroke="#3c78d8" stroke-width="4.0" stroke-linejoin="round" stroke-linecap="butt" d="m389.30905 334.9201l-35.307068 47.77954" fill-rule="nonzero"></path><path fill="#000000" fill-opacity="0.0" d="m354.0114 463.23654l0 41.858276" fill-rule="nonzero"></path><path stroke="#ffffff" stroke-width="4.0" stroke-linejoin="round" stroke-linecap="butt" d="m354.0114 463.23654l0 41.858276" fill-rule="nonzero"></path><path fill="#000000" fill-opacity="0.0" d="m389.30905 334.9201l-194.17322 47.77954" fill-rule="nonzero"></path><path stroke="#3c78d8" stroke-width="4.0" stroke-linejoin="round" stroke-linecap="butt" d="m389.30905 334.9201l-194.17322 47.77954" fill-rule="nonzero"></path><path fill="#000000" fill-opacity="0.0" d="m-394.80054 0l352.47244 0l0 72.220474l-352.47244 0z" fill-rule="nonzero"></path><path fill="#ffffff" d="m-290.3893 21.89336l7.484375 0l5.234375 14.0625l1.859375 5.46875l0.203125 0l1.875 -5.46875l5.078125 -14.0625l7.4374695 0l0 31.296875l-6.5780945 0l0 -11.46875q0 -1.15625 0.09375 -2.546875q0.109375 -1.390625 0.25 -2.796875q0.140625 -1.421875 0.28125 -2.78125q0.15625 -1.375 0.296875 -2.53125l-0.1875 0l-2.59375 7.25l-4.8125 12.140625l-2.828125 0l-4.796875 -12.140625l-2.5 -7.25l-0.1875 0q0.140625 1.15625 0.28125 2.53125q0.15625 1.359375 0.265625 2.78125q0.125 1.40625 0.21875 2.796875q0.09375 1.390625 0.09375 2.546875l0 11.46875l-6.46875 0l0 -31.296875zm49.294815 31.875q-3.171875 0 -5.796875 -1.125q-2.609375 -1.140625 -4.484375 -3.25q-1.875 -2.109375 -2.90625 -5.125q-1.03125 -3.03125 -1.03125 -6.875q0 -3.828125 1.03125 -6.828125q1.03125 -3.0 2.90625 -5.046875q1.875 -2.046875 4.484375 -3.125q2.625 -1.078125 5.796875 -1.078125q3.15625 0 5.765625 1.078125q2.625 1.078125 4.5 3.15625q1.875 2.0625 2.90625 5.0625q1.03125 3.0 1.03125 6.78125q0 3.84375 -1.03125 6.875q-1.03125 3.015625 -2.90625 5.125q-1.875 2.109375 -4.5 3.25q-2.609375 1.125 -5.765625 1.125zm0 -6.09375q3.203125 0 5.078125 -2.765625q1.875 -2.765625 1.875 -7.515625q0 -4.703125 -1.875 -7.34375q-1.875 -2.640625 -5.078125 -2.640625q-3.21875 0 -5.09375 2.640625q-1.875 2.640625 -1.875 7.34375q0 4.75 1.875 7.515625q1.875 2.765625 5.09375 2.765625zm20.113312 -25.78125l8.828125 0q3.59375 0 6.46875 0.921875q2.890625 0.90625 4.953125 2.796875q2.0625 1.890625 3.15625 4.828125q1.109375 2.921875 1.109375 6.953125q0 4.03125 -1.109375 7.015625q-1.09375 2.96875 -3.109375 4.921875q-2.015625 1.9375 -4.828125 2.90625q-2.796875 0.953125 -6.265625 0.953125l-9.203125 0l0 -31.296875zm8.390625 25.578125q2.015625 0 3.640625 -0.515625q1.640625 -0.53125 2.796875 -1.703125q1.15625 -1.1875 1.796875 -3.09375q0.640625 -1.921875 0.640625 -4.765625q0 -2.78125 -0.640625 -4.671875q-0.640625 -1.90625 -1.796875 -3.03125q-1.15625 -1.125 -2.796875 -1.59375q-1.625 -0.484375 -3.640625 -0.484375l-1.34375 0l0 19.859375l1.34375 0zm22.089447 -25.578125l19.578125 0l0 5.953125l-12.53125 0l0 6.28125l10.65625 0l0 5.90625l-10.65625 0l0 7.203125l13.015625 0l0 5.953125l-20.0625 0l0 -31.296875zm26.304047 0l7.046875 0l0 25.34375l12.390625 0l0 5.953125l-19.4375 0l0 -31.296875z" fill-rule="nonzero"></path><path fill="#000000" fill-opacity="0.0" d="m1085.2704 116.83071l352.4724 0l0 72.22047l-352.4724 0z" fill-rule="nonzero"></path><path fill="#ffffff" d="m1215.2656 138.72408l8.828125 0q3.59375 0 6.46875 0.921875q2.890625 0.90625 4.953125 2.796875q2.0625 1.890625 3.15625 4.828125q1.109375 2.921875 1.109375 6.953125q0 4.03125 -1.109375 7.015625q-1.09375 2.96875 -3.109375 4.921875q-2.015625 1.9375 -4.828125 2.90625q-2.796875 0.953125 -6.265625 0.953125l-9.203125 0l0 -31.296875zm8.390625 25.578125q2.015625 0 3.640625 -0.515625q1.640625 -0.53125 2.796875 -1.703125q1.15625 -1.1875 1.796875 -3.09375q0.640625 -1.921875 0.640625 -4.765625q0 -2.78125 -0.640625 -4.671875q-0.640625 -1.90625 -1.796875 -3.03125q-1.15625 -1.125 -2.796875 -1.59375q-1.625 -0.484375 -3.640625 -0.484375l-1.34375 0l0 19.859375l1.34375 0zm34.808105 6.296875q-3.171875 0 -5.796875 -1.125q-2.609375 -1.140625 -4.484375 -3.25q-1.875 -2.109375 -2.90625 -5.125q-1.03125 -3.03125 -1.03125 -6.875q0 -3.828125 1.03125 -6.828125q1.03125 -3.0 2.90625 -5.046875q1.875 -2.046875 4.484375 -3.125q2.625 -1.078125 5.796875 -1.078125q3.15625 0 5.765625 1.078125q2.625 1.078125 4.5 3.15625q1.875 2.0625 2.90625 5.0625q1.03125 3.0 1.03125 6.78125q0 3.84375 -1.03125 6.875q-1.03125 3.015625 -2.90625 5.125q-1.875 2.109375 -4.5 3.25q-2.609375 1.125 -5.765625 1.125zm0 -6.09375q3.203125 0 5.078125 -2.765625q1.875 -2.765625 1.875 -7.515625q0 -4.703125 -1.875 -7.34375q-1.875 -2.640625 -5.078125 -2.640625q-3.21875 0 -5.09375 2.640625q-1.875 2.640625 -1.875 7.34375q0 4.75 1.875 7.515625q1.875 2.765625 5.09375 2.765625zm20.113403 -25.78125l7.484375 0l5.234375 14.0625l1.859375 5.46875l0.203125 0l1.875 -5.46875l5.078125 -14.0625l7.4375 0l0 31.296875l-6.578125 0l0 -11.46875q0 -1.15625 0.09375 -2.546875q0.109375 -1.390625 0.25 -2.796875q0.140625 -1.421875 0.28125 -2.78125q0.15625 -1.375 0.296875 -2.53125l-0.1875 0l-2.59375 7.25l-4.8125 12.140625l-2.828125 0l-4.796875 -12.140625l-2.5 -7.25l-0.1875 0q0.140625 1.15625 0.28125 2.53125q0.15625 1.359375 0.265625 2.78125q0.125 1.40625 0.21875 2.796875q0.09375 1.390625 0.09375 2.546875l0 11.46875l-6.46875 0l0 -31.296875z" fill-rule="nonzero"></path><path fill="#3c78d8" d="m679.57043 396.12396l0 0c0 -7.4132385 6.0096436 -13.422852 13.422852 -13.422852l105.12286 0c3.5599365 0 6.97406 1.4141846 9.491333 3.9314575c2.517273 2.517273 3.9314575 5.931427 3.9314575 9.491394l0 53.68976c0 7.413208 -6.0095825 13.422821 -13.422791 13.422821l-105.12286 0c-7.413208 0 -13.422852 -6.009613 -13.422852 -13.422821z" fill-rule="nonzero"></path><path stroke="#3c78d8" stroke-width="1.0" stroke-linejoin="round" stroke-linecap="butt" d="m679.57043 396.12396l0 0c0 -7.4132385 6.0096436 -13.422852 13.422852 -13.422852l105.12286 0c3.5599365 0 6.97406 1.4141846 9.491333 3.9314575c2.517273 2.517273 3.9314575 5.931427 3.9314575 9.491394l0 53.68976c0 7.413208 -6.0095825 13.422821 -13.422791 13.422821l-105.12286 0c-7.413208 0 -13.422852 -6.009613 -13.422852 -13.422821z" fill-rule="nonzero"></path><path fill="#3c78d8" d="m520.6837 396.12396l0 0c0 -7.4132385 6.0096436 -13.422852 13.422852 -13.422852l105.1228 0c3.5599976 0 6.974121 1.4141846 9.491394 3.9314575c2.517273 2.517273 3.9314575 5.931427 3.9314575 9.491394l0 53.68976c0 7.413208 -6.0095825 13.422821 -13.422852 13.422821l-105.1228 0c-7.413208 0 -13.422852 -6.009613 -13.422852 -13.422821z" fill-rule="nonzero"></path><path stroke="#3c78d8" stroke-width="1.0" stroke-linejoin="round" stroke-linecap="butt" d="m520.6837 396.12396l0 0c0 -7.4132385 6.0096436 -13.422852 13.422852 -13.422852l105.1228 0c3.5599976 0 6.974121 1.4141846 9.491394 3.9314575c2.517273 2.517273 3.9314575 5.931427 3.9314575 9.491394l0 53.68976c0 7.413208 -6.0095825 13.422821 -13.422852 13.422821l-105.1228 0c-7.413208 0 -13.422852 -6.009613 -13.422852 -13.422821z" fill-rule="nonzero"></path><path fill="#000000" fill-opacity="0.0" d="m546.52295 334.9201l40.15747 47.77954" fill-rule="nonzero"></path><path stroke="#3c78d8" stroke-width="4.0" stroke-linejoin="round" stroke-linecap="butt" d="m546.52295 334.9201l40.15747 47.77954" fill-rule="nonzero"></path><path fill="#000000" fill-opacity="0.0" d="m546.52295 334.9201l199.02362 47.77954" fill-rule="nonzero"></path><path stroke="#3c78d8" stroke-width="4.0" stroke-linejoin="round" stroke-linecap="butt" d="m546.52295 334.9201l199.02362 47.77954" fill-rule="nonzero"></path><path fill="#3c78d8" d="m129.14099 518.50604l0 0c0 -7.413208 6.009613 -13.422821 13.422836 -13.422821l105.12283 0c3.5599518 0 6.974106 1.4141846 9.491379 3.9314575c2.517273 2.517273 3.9314575 5.931427 3.9314575 9.491364l0 53.68976c0 7.413208 -6.009613 13.422852 -13.422836 13.422852l-105.12283 0c-7.4132233 0 -13.422836 -6.0096436 -13.422836 -13.422852z" fill-rule="nonzero"></path><path stroke="#ffffff" stroke-width="1.0" stroke-linejoin="round" stroke-linecap="butt" d="m129.14099 518.50604l0 0c0 -7.413208 6.009613 -13.422821 13.422836 -13.422821l105.12283 0c3.5599518 0 6.974106 1.4141846 9.491379 3.9314575c2.517273 2.517273 3.9314575 5.931427 3.9314575 9.491364l0 53.68976c0 7.413208 -6.009613 13.422852 -13.422836 13.422852l-105.12283 0c-7.4132233 0 -13.422836 -6.0096436 -13.422836 -13.422852z" fill-rule="nonzero"></path><path fill="#3c78d8" d="m679.5714 518.50604l0 0c0 -7.413208 6.0096436 -13.422821 13.422852 -13.422821l105.12286 0c3.5599365 0 6.97406 1.4141846 9.491333 3.9314575c2.517273 2.517273 3.9314575 5.931427 3.9314575 9.491364l0 53.68976c0 7.413208 -6.0095825 13.422852 -13.422791 13.422852l-105.12286 0c-7.413208 0 -13.422852 -6.0096436 -13.422852 -13.422852z" fill-rule="nonzero"></path><path stroke="#3c78d8" stroke-width="1.0" stroke-linejoin="round" stroke-linecap="butt" d="m679.5714 518.50604l0 0c0 -7.413208 6.0096436 -13.422821 13.422852 -13.422821l105.12286 0c3.5599365 0 6.97406 1.4141846 9.491333 3.9314575c2.517273 2.517273 3.9314575 5.931427 3.9314575 9.491364l0 53.68976c0 7.413208 -6.0095825 13.422852 -13.422791 13.422852l-105.12286 0c-7.413208 0 -13.422852 -6.0096436 -13.422852 -13.422852z" fill-rule="nonzero"></path><path fill="#3c78d8" d="m520.6843 518.50604l0 0c0 -7.413208 6.0095825 -13.422821 13.422791 -13.422821l105.12286 0c3.5599365 0 6.974121 1.4141846 9.491394 3.9314575c2.517273 2.517273 3.9314575 5.931427 3.9314575 9.491364l0 53.68976c0 7.413208 -6.0096436 13.422852 -13.422852 13.422852l-105.12286 0c-7.413208 0 -13.422791 -6.0096436 -13.422791 -13.422852z" fill-rule="nonzero"></path><path stroke="#3c78d8" stroke-width="1.0" stroke-linejoin="round" stroke-linecap="butt" d="m520.6843 518.50604l0 0c0 -7.413208 6.0095825 -13.422821 13.422791 -13.422821l105.12286 0c3.5599365 0 6.974121 1.4141846 9.491394 3.9314575c2.517273 2.517273 3.9314575 5.931427 3.9314575 9.491364l0 53.68976c0 7.413208 -6.0096436 13.422852 -13.422852 13.422852l-105.12286 0c-7.413208 0 -13.422791 -6.0096436 -13.422791 -13.422852z" fill-rule="nonzero"></path><path fill="#000000" fill-opacity="0.0" d="m195.12524 463.22495l0 41.858276" fill-rule="nonzero"></path><path stroke="#3c78d8" stroke-width="4.0" stroke-linejoin="round" stroke-linecap="butt" d="m195.12524 463.22495l0 41.858276" fill-rule="nonzero"></path><path fill="#000000" fill-opacity="0.0" d="m354.0114 463.23654l0 41.858276" fill-rule="nonzero"></path><path stroke="#3c78d8" stroke-width="4.0" stroke-linejoin="round" stroke-linecap="butt" d="m354.0114 463.23654l0 41.858276" fill-rule="nonzero"></path><path fill="#000000" fill-opacity="0.0" d="m586.6686 463.22495l0 41.858276" fill-rule="nonzero"></path><path stroke="#3c78d8" stroke-width="4.0" stroke-linejoin="round" stroke-linecap="butt" d="m586.6686 463.22495l0 41.858276" fill-rule="nonzero"></path><path fill="#000000" fill-opacity="0.0" d="m745.5547 463.23654l0 41.858276" fill-rule="nonzero"></path><path stroke="#3c78d8" stroke-width="4.0" stroke-linejoin="round" stroke-linecap="butt" d="m745.5547 463.23654l0 41.858276" fill-rule="nonzero"></path><path fill="#000000" fill-opacity="0.0" d="m400.53674 134.3819l131.9685 0l0 80.53543l-131.9685 0z" fill-rule="nonzero"></path><path fill="#ffffff" d="m429.44183 182.12961l0 -15.03125l3.03125 0l0 15.03125l-3.03125 0zm15.894409 0l-2.875 0l0 -5.5625q0 -1.765625 -0.1875 -2.28125q-0.1875 -0.515625 -0.609375 -0.796875q-0.40625 -0.296875 -0.984375 -0.296875q-0.75 0 -1.34375 0.421875q-0.59375 0.40625 -0.8125 1.09375q-0.21875 0.671875 -0.21875 2.484375l0 4.9375l-2.890625 0l0 -10.890625l2.671875 0l0 1.59375q1.4375 -1.84375 3.59375 -1.84375q0.953125 0 1.734375 0.34375q0.796875 0.34375 1.203125 0.890625q0.40625 0.53125 0.5625 1.203125q0.15625 0.671875 0.15625 1.9375l0 6.765625zm3.0749512 -12.359375l0 -2.671875l2.875 0l0 2.671875l-2.875 0zm2.875 1.46875l0 10.546875q0 2.09375 -0.28125 2.9375q-0.265625 0.859375 -1.046875 1.34375q-0.765625 0.484375 -1.96875 0.484375q-0.421875 0 -0.921875 -0.078125q-0.5 -0.078125 -1.078125 -0.234375l0.5 -2.453125q0.21875 0.03125 0.40625 0.0625q0.171875 0.03125 0.3125 0.03125q0.453125 0 0.734375 -0.203125q0.28125 -0.1875 0.375 -0.453125q0.09375 -0.265625 0.09375 -1.59375l0 -10.390625l2.875 0zm9.410004 7.421875l2.875 0.484375q-0.5625 1.578125 -1.765625 2.40625q-1.1875 0.828125 -2.96875 0.828125q-2.84375 0 -4.203125 -1.859375q-1.078125 -1.484375 -1.078125 -3.75q0 -2.703125 1.40625 -4.234375q1.421875 -1.546875 3.578125 -1.546875q2.4375 0 3.84375 1.609375q1.40625 1.609375 1.34375 4.921875l-7.21875 0q0.03125 1.28125 0.6875 2.0q0.671875 0.703125 1.671875 0.703125q0.671875 0 1.125 -0.359375q0.46875 -0.375 0.703125 -1.203125zm0.171875 -2.90625q-0.03125 -1.25 -0.65625 -1.90625q-0.609375 -0.65625 -1.5 -0.65625q-0.9375 0 -1.546875 0.6875q-0.625 0.6875 -0.609375 1.875l4.3125 0zm14.877319 -1.296875l-2.84375 0.515625q-0.140625 -0.859375 -0.65625 -1.28125q-0.5 -0.4375 -1.3125 -0.4375q-1.078125 0 -1.71875 0.75q-0.640625 0.734375 -0.640625 2.484375q0 1.9375 0.65625 2.734375q0.65625 0.796875 1.75 0.796875q0.828125 0 1.34375 -0.453125q0.515625 -0.46875 0.734375 -1.609375l2.828125 0.484375q-0.4375 1.9375 -1.6875 2.9375q-1.25 1.0 -3.359375 1.0q-2.375 0 -3.796875 -1.5q-1.421875 -1.515625 -1.421875 -4.1875q0 -2.6875 1.421875 -4.1875q1.421875 -1.515625 3.859375 -1.515625q1.984375 0 3.15625 0.859375q1.171875 0.859375 1.6875 2.609375zm7.3616943 -3.21875l0 2.296875l-1.96875 0l0 4.390625q0 1.328125 0.046875 1.546875q0.0625 0.21875 0.265625 0.375q0.203125 0.140625 0.484375 0.140625q0.40625 0 1.15625 -0.28125l0.25 2.234375q-1.0 0.4375 -2.28125 0.4375q-0.765625 0 -1.390625 -0.265625q-0.625 -0.265625 -0.921875 -0.671875q-0.296875 -0.421875 -0.40625 -1.125q-0.09375 -0.5 -0.09375 -2.03125l0 -4.75l-1.328125 0l0 -2.296875l1.328125 0l0 -2.15625l2.890625 -1.6875l0 3.84375l1.96875 0zm1.4461975 5.296875q0 -1.4375 0.703125 -2.78125q0.703125 -1.34375 2.0 -2.046875q1.296875 -0.71875 2.90625 -0.71875q2.46875 0 4.046875 1.609375q1.578125 1.609375 1.578125 4.0625q0 2.46875 -1.59375 4.09375q-1.59375 1.625 -4.015625 1.625q-1.5 0 -2.859375 -0.671875q-1.359375 -0.6875 -2.0625 -1.984375q-0.703125 -1.3125 -0.703125 -3.1875zm2.953125 0.15625q0 1.609375 0.765625 2.46875q0.765625 0.859375 1.890625 0.859375q1.140625 0 1.890625 -0.859375q0.765625 -0.859375 0.765625 -2.5q0 -1.59375 -0.765625 -2.453125q-0.75 -0.859375 -1.890625 -0.859375q-1.125 0 -1.890625 0.859375q-0.765625 0.859375 -0.765625 2.484375zm13.496826 5.4375l-2.875 0l0 -10.890625l2.671875 0l0 1.546875q0.6875 -1.09375 1.234375 -1.4375q0.546875 -0.359375 1.25 -0.359375q0.984375 0 1.890625 0.546875l-0.890625 2.515625q-0.734375 -0.46875 -1.359375 -0.46875q-0.59375 0 -1.015625 0.328125q-0.421875 0.328125 -0.671875 1.203125q-0.234375 0.875 -0.234375 3.65625l0 3.359375z" fill-rule="nonzero"></path><path fill="#000000" fill-opacity="0.0" d="m323.32416 254.3819l131.9685 0l0 80.53543l-131.9685 0z" fill-rule="nonzero"></path><path fill="#ffffff" d="m352.22925 302.1296l0 -15.03125l3.03125 0l0 15.03125l-3.03125 0zm15.894379 0l-2.875 0l0 -5.5625q0 -1.765625 -0.1875 -2.28125q-0.1875 -0.515625 -0.609375 -0.796875q-0.40625 -0.296875 -0.984375 -0.296875q-0.75 0 -1.34375 0.421875q-0.59375 0.40625 -0.8125 1.09375q-0.21875 0.671875 -0.21875 2.484375l0 4.9375l-2.890625 0l0 -10.890625l2.671875 0l0 1.59375q1.4375 -1.84375 3.59375 -1.84375q0.953125 0 1.734375 0.34375q0.796875 0.34375 1.203125 0.890625q0.40625 0.53125 0.5625 1.203125q0.15625 0.671875 0.15625 1.9375l0 6.765625zm3.0749512 -12.359375l0 -2.671875l2.875 0l0 2.671875l-2.875 0zm2.875 1.46875l0 10.546875q0 2.09375 -0.28125 2.9375q-0.265625 0.859375 -1.046875 1.34375q-0.765625 0.484375 -1.96875 0.484375q-0.421875 0 -0.921875 -0.078125q-0.5 -0.078125 -1.078125 -0.234375l0.5 -2.453125q0.21875 0.03125 0.40625 0.0625q0.171875 0.03125 0.3125 0.03125q0.453125 0 0.734375 -0.203125q0.28125 -0.1875 0.375 -0.453125q0.09375 -0.265625 0.09375 -1.59375l0 -10.390625l2.875 0zm9.410034 7.421875l2.875 0.484375q-0.5625 1.578125 -1.765625 2.40625q-1.1875 0.828125 -2.96875 0.828125q-2.84375 0 -4.203125 -1.859375q-1.078125 -1.484375 -1.078125 -3.75q0 -2.703125 1.40625 -4.234375q1.421875 -1.546875 3.578125 -1.546875q2.4375 0 3.84375 1.609375q1.40625 1.609375 1.34375 4.921875l-7.21875 0q0.03125 1.28125 0.6875 2.0q0.671875 0.703125 1.671875 0.703125q0.671875 0 1.125 -0.359375q0.46875 -0.375 0.703125 -1.203125zm0.171875 -2.90625q-0.03125 -1.25 -0.65625 -1.90625q-0.609375 -0.65625 -1.5 -0.65625q-0.9375 0 -1.546875 0.6875q-0.625 0.6875 -0.609375 1.875l4.3125 0zm14.877319 -1.296875l-2.84375 0.515625q-0.140625 -0.859375 -0.65625 -1.28125q-0.5 -0.4375 -1.3125 -0.4375q-1.078125 0 -1.71875 0.75q-0.640625 0.734375 -0.640625 2.484375q0 1.9375 0.65625 2.734375q0.65625 0.796875 1.75 0.796875q0.828125 0 1.34375 -0.453125q0.515625 -0.46875 0.734375 -1.609375l2.828125 0.484375q-0.4375 1.9375 -1.6875 2.9375q-1.25 1.0 -3.359375 1.0q-2.375 0 -3.796875 -1.5q-1.421875 -1.515625 -1.421875 -4.1875q0 -2.6875 1.421875 -4.1875q1.421875 -1.515625 3.859375 -1.515625q1.984375 0 3.15625 0.859375q1.171875 0.859375 1.6875 2.609375zm7.3616943 -3.21875l0 2.296875l-1.96875 0l0 4.390625q0 1.328125 0.046875 1.546875q0.0625 0.21875 0.265625 0.375q0.203125 0.140625 0.484375 0.140625q0.40625 0 1.15625 -0.28125l0.25 2.234375q-1.0 0.4375 -2.28125 0.4375q-0.765625 0 -1.390625 -0.265625q-0.625 -0.265625 -0.921875 -0.671875q-0.296875 -0.421875 -0.40625 -1.125q-0.09375 -0.5 -0.09375 -2.03125l0 -4.75l-1.328125 0l0 -2.296875l1.328125 0l0 -2.15625l2.890625 -1.6875l0 3.84375l1.96875 0zm1.446167 5.296875q0 -1.4375 0.703125 -2.78125q0.703125 -1.34375 2.0 -2.046875q1.296875 -0.71875 2.90625 -0.71875q2.46875 0 4.046875 1.609375q1.578125 1.609375 1.578125 4.0625q0 2.46875 -1.59375 4.09375q-1.59375 1.625 -4.015625 1.625q-1.5 0 -2.859375 -0.671875q-1.359375 -0.6875 -2.0625 -1.984375q-0.703125 -1.3125 -0.703125 -3.1875zm2.953125 0.15625q0 1.609375 0.765625 2.46875q0.765625 0.859375 1.890625 0.859375q1.140625 0 1.890625 -0.859375q0.765625 -0.859375 0.765625 -2.5q0 -1.59375 -0.765625 -2.453125q-0.75 -0.859375 -1.890625 -0.859375q-1.125 0 -1.890625 0.859375q-0.765625 0.859375 -0.765625 2.484375zm13.496826 5.4375l-2.875 0l0 -10.890625l2.671875 0l0 1.546875q0.6875 -1.09375 1.234375 -1.4375q0.546875 -0.359375 1.25 -0.359375q0.984375 0 1.890625 0.546875l-0.890625 2.515625q-0.734375 -0.46875 -1.359375 -0.46875q-0.59375 0 -1.015625 0.328125q-0.421875 0.328125 -0.671875 1.203125q-0.234375 0.875 -0.234375 3.65625l0 3.359375z" fill-rule="nonzero"></path><path fill="#000000" fill-opacity="0.0" d="m480.53937 254.38452l131.9685 0l0 80.53543l-131.9685 0z" fill-rule="nonzero"></path><path fill="#ffffff" d="m509.44446 302.13223l0 -15.03125l3.03125 0l0 15.03125l-3.03125 0zm15.894409 0l-2.875 0l0 -5.5625q0 -1.765625 -0.1875 -2.28125q-0.1875 -0.515625 -0.609375 -0.796875q-0.40625 -0.296875 -0.984375 -0.296875q-0.75 0 -1.34375 0.421875q-0.59375 0.40625 -0.8125 1.09375q-0.21875 0.671875 -0.21875 2.484375l0 4.9375l-2.890625 0l0 -10.890625l2.671875 0l0 1.59375q1.4375 -1.84375 3.59375 -1.84375q0.953125 0 1.734375 0.34375q0.796875 0.34375 1.203125 0.890625q0.40625 0.53125 0.5625 1.203125q0.15625 0.671875 0.15625 1.9375l0 6.765625zm3.0749512 -12.359375l0 -2.671875l2.875 0l0 2.671875l-2.875 0zm2.875 1.46875l0 10.546875q0 2.09375 -0.28125 2.9375q-0.265625 0.859375 -1.046875 1.34375q-0.765625 0.484375 -1.96875 0.484375q-0.421875 0 -0.921875 -0.078125q-0.5 -0.078125 -1.078125 -0.234375l0.5 -2.453125q0.21875 0.03125 0.40625 0.0625q0.171875 0.03125 0.3125 0.03125q0.453125 0 0.734375 -0.203125q0.28125 -0.1875 0.375 -0.453125q0.09375 -0.265625 0.09375 -1.59375l0 -10.390625l2.875 0zm9.410034 7.421875l2.875 0.484375q-0.5625 1.578125 -1.765625 2.40625q-1.1875 0.828125 -2.96875 0.828125q-2.84375 0 -4.203125 -1.859375q-1.078125 -1.484375 -1.078125 -3.75q0 -2.703125 1.40625 -4.234375q1.421875 -1.546875 3.578125 -1.546875q2.4375 0 3.84375 1.609375q1.40625 1.609375 1.34375 4.921875l-7.21875 0q0.03125 1.28125 0.6875 2.0q0.671875 0.703125 1.671875 0.703125q0.671875 0 1.125 -0.359375q0.46875 -0.375 0.703125 -1.203125zm0.171875 -2.90625q-0.03125 -1.25 -0.65625 -1.90625q-0.609375 -0.65625 -1.5 -0.65625q-0.9375 0 -1.546875 0.6875q-0.625 0.6875 -0.609375 1.875l4.3125 0zm14.877319 -1.296875l-2.84375 0.515625q-0.140625 -0.859375 -0.65625 -1.28125q-0.5 -0.4375 -1.3125 -0.4375q-1.078125 0 -1.71875 0.75q-0.640625 0.734375 -0.640625 2.484375q0 1.9375 0.65625 2.734375q0.65625 0.796875 1.75 0.796875q0.828125 0 1.34375 -0.453125q0.515625 -0.46875 0.734375 -1.609375l2.828125 0.484375q-0.4375 1.9375 -1.6875 2.9375q-1.25 1.0 -3.359375 1.0q-2.375 0 -3.796875 -1.5q-1.421875 -1.515625 -1.421875 -4.1875q0 -2.6875 1.421875 -4.1875q1.421875 -1.515625 3.859375 -1.515625q1.984375 0 3.15625 0.859375q1.171875 0.859375 1.6875 2.609375zm7.3616943 -3.21875l0 2.296875l-1.96875 0l0 4.390625q0 1.328125 0.046875 1.546875q0.0625 0.21875 0.265625 0.375q0.203125 0.140625 0.484375 0.140625q0.40625 0 1.15625 -0.28125l0.25 2.234375q-1.0 0.4375 -2.28125 0.4375q-0.765625 0 -1.390625 -0.265625q-0.625 -0.265625 -0.921875 -0.671875q-0.296875 -0.421875 -0.40625 -1.125q-0.09375 -0.5 -0.09375 -2.03125l0 -4.75l-1.328125 0l0 -2.296875l1.328125 0l0 -2.15625l2.890625 -1.6875l0 3.84375l1.96875 0zm1.446167 5.296875q0 -1.4375 0.703125 -2.78125q0.703125 -1.34375 2.0 -2.046875q1.296875 -0.71875 2.90625 -0.71875q2.46875 0 4.046875 1.609375q1.578125 1.609375 1.578125 4.0625q0 2.46875 -1.59375 4.09375q-1.59375 1.625 -4.015625 1.625q-1.5 0 -2.859375 -0.671875q-1.359375 -0.6875 -2.0625 -1.984375q-0.703125 -1.3125 -0.703125 -3.1875zm2.953125 0.15625q0 1.609375 0.765625 2.46875q0.765625 0.859375 1.890625 0.859375q1.140625 0 1.890625 -0.859375q0.765625 -0.859375 0.765625 -2.5q0 -1.59375 -0.765625 -2.453125q-0.75 -0.859375 -1.890625 -0.859375q-1.125 0 -1.890625 0.859375q-0.765625 0.859375 -0.765625 2.484375zm13.496826 5.4375l-2.875 0l0 -10.890625l2.671875 0l0 1.546875q0.6875 -1.09375 1.234375 -1.4375q0.546875 -0.359375 1.25 -0.359375q0.984375 0 1.890625 0.546875l-0.890625 2.515625q-0.734375 -0.46875 -1.359375 -0.46875q-0.59375 0 -1.015625 0.328125q-0.421875 0.328125 -0.671875 1.203125q-0.234375 0.875 -0.234375 3.65625l0 3.359375z" fill-rule="nonzero"></path><path fill="#000000" fill-opacity="0.0" d="m129.14043 382.7021l131.96849 0l0 80.53543l-131.96849 0z" fill-rule="nonzero"></path><path fill="#ffffff" d="m158.04552 430.44983l0 -15.03125l3.03125 0l0 15.03125l-3.03125 0zm15.894394 0l-2.875 0l0 -5.5625q0 -1.765625 -0.1875 -2.28125q-0.1875 -0.515625 -0.609375 -0.796875q-0.40625 -0.296875 -0.984375 -0.296875q-0.75 0 -1.34375 0.421875q-0.59375 0.40625 -0.8125 1.09375q-0.21875 0.671875 -0.21875 2.484375l0 4.9375l-2.890625 0l0 -10.890625l2.671875 0l0 1.59375q1.4375 -1.84375 3.59375 -1.84375q0.953125 0 1.734375 0.34375q0.796875 0.34375 1.203125 0.890625q0.40625 0.53125 0.5625 1.203125q0.15625 0.671875 0.15625 1.9375l0 6.765625zm3.0749512 -12.359375l0 -2.671875l2.875 0l0 2.671875l-2.875 0zm2.875 1.46875l0 10.546875q0 2.09375 -0.28125 2.9375q-0.265625 0.859375 -1.046875 1.34375q-0.765625 0.484375 -1.96875 0.484375q-0.421875 0 -0.921875 -0.078125q-0.5 -0.078125 -1.078125 -0.234375l0.5 -2.453125q0.21875 0.03125 0.40625 0.0625q0.171875 0.03125 0.3125 0.03125q0.453125 0 0.734375 -0.203125q0.28125 -0.1875 0.375 -0.453125q0.09375 -0.265625 0.09375 -1.59375l0 -10.390625l2.875 0zm9.410019 7.421875l2.875 0.484375q-0.5625 1.578125 -1.765625 2.40625q-1.1875 0.828125 -2.96875 0.828125q-2.84375 0 -4.203125 -1.859375q-1.078125 -1.484375 -1.078125 -3.75q0 -2.703125 1.40625 -4.234375q1.421875 -1.546875 3.578125 -1.546875q2.4375 0 3.84375 1.609375q1.40625 1.609375 1.34375 4.921875l-7.21875 0q0.03125 1.28125 0.6875 2.0q0.671875 0.703125 1.671875 0.703125q0.671875 0 1.125 -0.359375q0.46875 -0.375 0.703125 -1.203125zm0.171875 -2.90625q-0.03125 -1.25 -0.65625 -1.90625q-0.609375 -0.65625 -1.5 -0.65625q-0.9375 0 -1.546875 0.6875q-0.625 0.6875 -0.609375 1.875l4.3125 0zm14.877319 -1.296875l-2.84375 0.515625q-0.140625 -0.859375 -0.65625 -1.28125q-0.5 -0.4375 -1.3125 -0.4375q-1.078125 0 -1.71875 0.75q-0.640625 0.734375 -0.640625 2.484375q0 1.9375 0.65625 2.734375q0.65625 0.796875 1.75 0.796875q0.828125 0 1.34375 -0.453125q0.515625 -0.46875 0.734375 -1.609375l2.828125 0.484375q-0.4375 1.9375 -1.6875 2.9375q-1.25 1.0 -3.359375 1.0q-2.375 0 -3.796875 -1.5q-1.421875 -1.515625 -1.421875 -4.1875q0 -2.6875 1.421875 -4.1875q1.421875 -1.515625 3.859375 -1.515625q1.984375 0 3.15625 0.859375q1.171875 0.859375 1.6875 2.609375zm7.3616943 -3.21875l0 2.296875l-1.96875 0l0 4.390625q0 1.328125 0.046875 1.546875q0.0625 0.21875 0.265625 0.375q0.203125 0.140625 0.484375 0.140625q0.40625 0 1.15625 -0.28125l0.25 2.234375q-1.0 0.4375 -2.28125 0.4375q-0.765625 0 -1.390625 -0.265625q-0.625 -0.265625 -0.921875 -0.671875q-0.296875 -0.421875 -0.40625 -1.125q-0.09375 -0.5 -0.09375 -2.03125l0 -4.75l-1.328125 0l0 -2.296875l1.328125 0l0 -2.15625l2.890625 -1.6875l0 3.84375l1.96875 0zm1.4461823 5.296875q0 -1.4375 0.703125 -2.78125q0.703125 -1.34375 2.0 -2.046875q1.296875 -0.71875 2.90625 -0.71875q2.46875 0 4.046875 1.609375q1.578125 1.609375 1.578125 4.0625q0 2.46875 -1.59375 4.09375q-1.59375 1.625 -4.015625 1.625q-1.5 0 -2.859375 -0.671875q-1.359375 -0.6875 -2.0625 -1.984375q-0.703125 -1.3125 -0.703125 -3.1875zm2.953125 0.15625q0 1.609375 0.765625 2.46875q0.765625 0.859375 1.890625 0.859375q1.140625 0 1.890625 -0.859375q0.765625 -0.859375 0.765625 -2.5q0 -1.59375 -0.765625 -2.453125q-0.75 -0.859375 -1.890625 -0.859375q-1.125 0 -1.890625 0.859375q-0.765625 0.859375 -0.765625 2.484375zm13.496826 5.4375l-2.875 0l0 -10.890625l2.671875 0l0 1.546875q0.6875 -1.09375 1.234375 -1.4375q0.546875 -0.359375 1.25 -0.359375q0.984375 0 1.890625 0.546875l-0.890625 2.515625q-0.734375 -0.46875 -1.359375 -0.46875q-0.59375 0 -1.015625 0.328125q-0.421875 0.328125 -0.671875 1.203125q-0.234375 0.875 -0.234375 3.65625l0 3.359375z" fill-rule="nonzero"></path><path fill="#000000" fill-opacity="0.0" d="m290.43832 382.7021l131.9685 0l0 80.53543l-131.9685 0z" fill-rule="nonzero"></path><path fill="#ffffff" d="m319.3434 430.44983l0 -15.03125l3.03125 0l0 15.03125l-3.03125 0zm15.894379 0l-2.875 0l0 -5.5625q0 -1.765625 -0.1875 -2.28125q-0.1875 -0.515625 -0.609375 -0.796875q-0.40625 -0.296875 -0.984375 -0.296875q-0.75 0 -1.34375 0.421875q-0.59375 0.40625 -0.8125 1.09375q-0.21875 0.671875 -0.21875 2.484375l0 4.9375l-2.890625 0l0 -10.890625l2.671875 0l0 1.59375q1.4375 -1.84375 3.59375 -1.84375q0.953125 0 1.734375 0.34375q0.796875 0.34375 1.203125 0.890625q0.40625 0.53125 0.5625 1.203125q0.15625 0.671875 0.15625 1.9375l0 6.765625zm3.0749512 -12.359375l0 -2.671875l2.875 0l0 2.671875l-2.875 0zm2.875 1.46875l0 10.546875q0 2.09375 -0.28125 2.9375q-0.265625 0.859375 -1.046875 1.34375q-0.765625 0.484375 -1.96875 0.484375q-0.421875 0 -0.921875 -0.078125q-0.5 -0.078125 -1.078125 -0.234375l0.5 -2.453125q0.21875 0.03125 0.40625 0.0625q0.171875 0.03125 0.3125 0.03125q0.453125 0 0.734375 -0.203125q0.28125 -0.1875 0.375 -0.453125q0.09375 -0.265625 0.09375 -1.59375l0 -10.390625l2.875 0zm9.410034 7.421875l2.875 0.484375q-0.5625 1.578125 -1.765625 2.40625q-1.1875 0.828125 -2.96875 0.828125q-2.84375 0 -4.203125 -1.859375q-1.078125 -1.484375 -1.078125 -3.75q0 -2.703125 1.40625 -4.234375q1.421875 -1.546875 3.578125 -1.546875q2.4375 0 3.84375 1.609375q1.40625 1.609375 1.34375 4.921875l-7.21875 0q0.03125 1.28125 0.6875 2.0q0.671875 0.703125 1.671875 0.703125q0.671875 0 1.125 -0.359375q0.46875 -0.375 0.703125 -1.203125zm0.171875 -2.90625q-0.03125 -1.25 -0.65625 -1.90625q-0.609375 -0.65625 -1.5 -0.65625q-0.9375 0 -1.546875 0.6875q-0.625 0.6875 -0.609375 1.875l4.3125 0zm14.877319 -1.296875l-2.84375 0.515625q-0.140625 -0.859375 -0.65625 -1.28125q-0.5 -0.4375 -1.3125 -0.4375q-1.078125 0 -1.71875 0.75q-0.640625 0.734375 -0.640625 2.484375q0 1.9375 0.65625 2.734375q0.65625 0.796875 1.75 0.796875q0.828125 0 1.34375 -0.453125q0.515625 -0.46875 0.734375 -1.609375l2.828125 0.484375q-0.4375 1.9375 -1.6875 2.9375q-1.25 1.0 -3.359375 1.0q-2.375 0 -3.796875 -1.5q-1.421875 -1.515625 -1.421875 -4.1875q0 -2.6875 1.421875 -4.1875q1.421875 -1.515625 3.859375 -1.515625q1.984375 0 3.15625 0.859375q1.171875 0.859375 1.6875 2.609375zm7.3616943 -3.21875l0 2.296875l-1.96875 0l0 4.390625q0 1.328125 0.046875 1.546875q0.0625 0.21875 0.265625 0.375q0.203125 0.140625 0.484375 0.140625q0.40625 0 1.15625 -0.28125l0.25 2.234375q-1.0 0.4375 -2.28125 0.4375q-0.765625 0 -1.390625 -0.265625q-0.625 -0.265625 -0.921875 -0.671875q-0.296875 -0.421875 -0.40625 -1.125q-0.09375 -0.5 -0.09375 -2.03125l0 -4.75l-1.328125 0l0 -2.296875l1.328125 0l0 -2.15625l2.890625 -1.6875l0 3.84375l1.96875 0zm1.446167 5.296875q0 -1.4375 0.703125 -2.78125q0.703125 -1.34375 2.0 -2.046875q1.296875 -0.71875 2.90625 -0.71875q2.46875 0 4.046875 1.609375q1.578125 1.609375 1.578125 4.0625q0 2.46875 -1.59375 4.09375q-1.59375 1.625 -4.015625 1.625q-1.5 0 -2.859375 -0.671875q-1.359375 -0.6875 -2.0625 -1.984375q-0.703125 -1.3125 -0.703125 -3.1875zm2.953125 0.15625q0 1.609375 0.765625 2.46875q0.765625 0.859375 1.890625 0.859375q1.140625 0 1.890625 -0.859375q0.765625 -0.859375 0.765625 -2.5q0 -1.59375 -0.765625 -2.453125q-0.75 -0.859375 -1.890625 -0.859375q-1.125 0 -1.890625 0.859375q-0.765625 0.859375 -0.765625 2.484375zm13.496826 5.4375l-2.875 0l0 -10.890625l2.671875 0l0 1.546875q0.6875 -1.09375 1.234375 -1.4375q0.546875 -0.359375 1.25 -0.359375q0.984375 0 1.890625 0.546875l-0.890625 2.515625q-0.734375 -0.46875 -1.359375 -0.46875q-0.59375 0 -1.015625 0.328125q-0.421875 0.328125 -0.671875 1.203125q-0.234375 0.875 -0.234375 3.65625l0 3.359375z" fill-rule="nonzero"></path><path fill="#000000" fill-opacity="0.0" d="m520.68243 382.7021l131.9685 0l0 80.53543l-131.9685 0z" fill-rule="nonzero"></path><path fill="#ffffff" d="m549.5875 430.44983l0 -15.03125l3.03125 0l0 15.03125l-3.03125 0zm15.894348 0l-2.875 0l0 -5.5625q0 -1.765625 -0.1875 -2.28125q-0.1875 -0.515625 -0.609375 -0.796875q-0.40625 -0.296875 -0.984375 -0.296875q-0.75 0 -1.34375 0.421875q-0.59375 0.40625 -0.8125 1.09375q-0.21875 0.671875 -0.21875 2.484375l0 4.9375l-2.890625 0l0 -10.890625l2.671875 0l0 1.59375q1.4375 -1.84375 3.59375 -1.84375q0.953125 0 1.734375 0.34375q0.796875 0.34375 1.203125 0.890625q0.40625 0.53125 0.5625 1.203125q0.15625 0.671875 0.15625 1.9375l0 6.765625zm3.0749512 -12.359375l0 -2.671875l2.875 0l0 2.671875l-2.875 0zm2.875 1.46875l0 10.546875q0 2.09375 -0.28125 2.9375q-0.265625 0.859375 -1.046875 1.34375q-0.765625 0.484375 -1.96875 0.484375q-0.421875 0 -0.921875 -0.078125q-0.5 -0.078125 -1.078125 -0.234375l0.5 -2.453125q0.21875 0.03125 0.40625 0.0625q0.171875 0.03125 0.3125 0.03125q0.453125 0 0.734375 -0.203125q0.28125 -0.1875 0.375 -0.453125q0.09375 -0.265625 0.09375 -1.59375l0 -10.390625l2.875 0zm9.410034 7.421875l2.875 0.484375q-0.5625 1.578125 -1.765625 2.40625q-1.1875 0.828125 -2.96875 0.828125q-2.84375 0 -4.203125 -1.859375q-1.078125 -1.484375 -1.078125 -3.75q0 -2.703125 1.40625 -4.234375q1.421875 -1.546875 3.578125 -1.546875q2.4375 0 3.84375 1.609375q1.40625 1.609375 1.34375 4.921875l-7.21875 0q0.03125 1.28125 0.6875 2.0q0.671875 0.703125 1.671875 0.703125q0.671875 0 1.125 -0.359375q0.46875 -0.375 0.703125 -1.203125zm0.171875 -2.90625q-0.03125 -1.25 -0.65625 -1.90625q-0.609375 -0.65625 -1.5 -0.65625q-0.9375 0 -1.546875 0.6875q-0.625 0.6875 -0.609375 1.875l4.3125 0zm14.877319 -1.296875l-2.84375 0.515625q-0.140625 -0.859375 -0.65625 -1.28125q-0.5 -0.4375 -1.3125 -0.4375q-1.078125 0 -1.71875 0.75q-0.640625 0.734375 -0.640625 2.484375q0 1.9375 0.65625 2.734375q0.65625 0.796875 1.75 0.796875q0.828125 0 1.34375 -0.453125q0.515625 -0.46875 0.734375 -1.609375l2.828125 0.484375q-0.4375 1.9375 -1.6875 2.9375q-1.25 1.0 -3.359375 1.0q-2.375 0 -3.796875 -1.5q-1.421875 -1.515625 -1.421875 -4.1875q0 -2.6875 1.421875 -4.1875q1.421875 -1.515625 3.859375 -1.515625q1.984375 0 3.15625 0.859375q1.171875 0.859375 1.6875 2.609375zm7.3616943 -3.21875l0 2.296875l-1.96875 0l0 4.390625q0 1.328125 0.046875 1.546875q0.0625 0.21875 0.265625 0.375q0.203125 0.140625 0.484375 0.140625q0.40625 0 1.15625 -0.28125l0.25 2.234375q-1.0 0.4375 -2.28125 0.4375q-0.765625 0 -1.390625 -0.265625q-0.625 -0.265625 -0.921875 -0.671875q-0.296875 -0.421875 -0.40625 -1.125q-0.09375 -0.5 -0.09375 -2.03125l0 -4.75l-1.328125 0l0 -2.296875l1.328125 0l0 -2.15625l2.890625 -1.6875l0 3.84375l1.96875 0zm1.446167 5.296875q0 -1.4375 0.703125 -2.78125q0.703125 -1.34375 2.0 -2.046875q1.296875 -0.71875 2.90625 -0.71875q2.46875 0 4.046875 1.609375q1.578125 1.609375 1.578125 4.0625q0 2.46875 -1.59375 4.09375q-1.59375 1.625 -4.015625 1.625q-1.5 0 -2.859375 -0.671875q-1.359375 -0.6875 -2.0625 -1.984375q-0.703125 -1.3125 -0.703125 -3.1875zm2.953125 0.15625q0 1.609375 0.765625 2.46875q0.765625 0.859375 1.890625 0.859375q1.140625 0 1.890625 -0.859375q0.765625 -0.859375 0.765625 -2.5q0 -1.59375 -0.765625 -2.453125q-0.75 -0.859375 -1.890625 -0.859375q-1.125 0 -1.890625 0.859375q-0.765625 0.859375 -0.765625 2.484375zm13.496826 5.4375l-2.875 0l0 -10.890625l2.671875 0l0 1.546875q0.6875 -1.09375 1.234375 -1.4375q0.546875 -0.359375 1.25 -0.359375q0.984375 0 1.890625 0.546875l-0.890625 2.515625q-0.734375 -0.46875 -1.359375 -0.46875q-0.59375 0 -1.015625 0.328125q-0.421875 0.328125 -0.671875 1.203125q-0.234375 0.875 -0.234375 3.65625l0 3.359375z" fill-rule="nonzero"></path><path fill="#000000" fill-opacity="0.0" d="m679.5696 382.7021l131.9685 0l0 80.53543l-131.9685 0z" fill-rule="nonzero"></path><path fill="#ffffff" d="m708.4747 430.44983l0 -15.03125l3.03125 0l0 15.03125l-3.03125 0zm15.894348 0l-2.875 0l0 -5.5625q0 -1.765625 -0.1875 -2.28125q-0.1875 -0.515625 -0.609375 -0.796875q-0.40625 -0.296875 -0.984375 -0.296875q-0.75 0 -1.34375 0.421875q-0.59375 0.40625 -0.8125 1.09375q-0.21875 0.671875 -0.21875 2.484375l0 4.9375l-2.890625 0l0 -10.890625l2.671875 0l0 1.59375q1.4375 -1.84375 3.59375 -1.84375q0.953125 0 1.734375 0.34375q0.796875 0.34375 1.203125 0.890625q0.40625 0.53125 0.5625 1.203125q0.15625 0.671875 0.15625 1.9375l0 6.765625zm3.0749512 -12.359375l0 -2.671875l2.875 0l0 2.671875l-2.875 0zm2.875 1.46875l0 10.546875q0 2.09375 -0.28125 2.9375q-0.265625 0.859375 -1.046875 1.34375q-0.765625 0.484375 -1.96875 0.484375q-0.421875 0 -0.921875 -0.078125q-0.5 -0.078125 -1.078125 -0.234375l0.5 -2.453125q0.21875 0.03125 0.40625 0.0625q0.171875 0.03125 0.3125 0.03125q0.453125 0 0.734375 -0.203125q0.28125 -0.1875 0.375 -0.453125q0.09375 -0.265625 0.09375 -1.59375l0 -10.390625l2.875 0zm9.410034 7.421875l2.875 0.484375q-0.5625 1.578125 -1.765625 2.40625q-1.1875 0.828125 -2.96875 0.828125q-2.84375 0 -4.203125 -1.859375q-1.078125 -1.484375 -1.078125 -3.75q0 -2.703125 1.40625 -4.234375q1.421875 -1.546875 3.578125 -1.546875q2.4375 0 3.84375 1.609375q1.40625 1.609375 1.34375 4.921875l-7.21875 0q0.03125 1.28125 0.6875 2.0q0.671875 0.703125 1.671875 0.703125q0.671875 0 1.125 -0.359375q0.46875 -0.375 0.703125 -1.203125zm0.171875 -2.90625q-0.03125 -1.25 -0.65625 -1.90625q-0.609375 -0.65625 -1.5 -0.65625q-0.9375 0 -1.546875 0.6875q-0.625 0.6875 -0.609375 1.875l4.3125 0zm14.877319 -1.296875l-2.84375 0.515625q-0.140625 -0.859375 -0.65625 -1.28125q-0.5 -0.4375 -1.3125 -0.4375q-1.078125 0 -1.71875 0.75q-0.640625 0.734375 -0.640625 2.484375q0 1.9375 0.65625 2.734375q0.65625 0.796875 1.75 0.796875q0.828125 0 1.34375 -0.453125q0.515625 -0.46875 0.734375 -1.609375l2.828125 0.484375q-0.4375 1.9375 -1.6875 2.9375q-1.25 1.0 -3.359375 1.0q-2.375 0 -3.796875 -1.5q-1.421875 -1.515625 -1.421875 -4.1875q0 -2.6875 1.421875 -4.1875q1.421875 -1.515625 3.859375 -1.515625q1.984375 0 3.15625 0.859375q1.171875 0.859375 1.6875 2.609375zm7.3616943 -3.21875l0 2.296875l-1.96875 0l0 4.390625q0 1.328125 0.046875 1.546875q0.0625 0.21875 0.265625 0.375q0.203125 0.140625 0.484375 0.140625q0.40625 0 1.15625 -0.28125l0.25 2.234375q-1.0 0.4375 -2.28125 0.4375q-0.765625 0 -1.390625 -0.265625q-0.625 -0.265625 -0.921875 -0.671875q-0.296875 -0.421875 -0.40625 -1.125q-0.09375 -0.5 -0.09375 -2.03125l0 -4.75l-1.328125 0l0 -2.296875l1.328125 0l0 -2.15625l2.890625 -1.6875l0 3.84375l1.96875 0zm1.446167 5.296875q0 -1.4375 0.703125 -2.78125q0.703125 -1.34375 2.0 -2.046875q1.296875 -0.71875 2.90625 -0.71875q2.46875 0 4.046875 1.609375q1.578125 1.609375 1.578125 4.0625q0 2.46875 -1.59375 4.09375q-1.59375 1.625 -4.015625 1.625q-1.5 0 -2.859375 -0.671875q-1.359375 -0.6875 -2.0625 -1.984375q-0.703125 -1.3125 -0.703125 -3.1875zm2.953125 0.15625q0 1.609375 0.765625 2.46875q0.765625 0.859375 1.890625 0.859375q1.140625 0 1.890625 -0.859375q0.765625 -0.859375 0.765625 -2.5q0 -1.59375 -0.765625 -2.453125q-0.75 -0.859375 -1.890625 -0.859375q-1.125 0 -1.890625 0.859375q-0.765625 0.859375 -0.765625 2.484375zm13.496826 5.4375l-2.875 0l0 -10.890625l2.671875 0l0 1.546875q0.6875 -1.09375 1.234375 -1.4375q0.546875 -0.359375 1.25 -0.359375q0.984375 0 1.890625 0.546875l-0.890625 2.515625q-0.734375 -0.46875 -1.359375 -0.46875q-0.59375 0 -1.015625 0.328125q-0.421875 0.328125 -0.671875 1.203125q-0.234375 0.875 -0.234375 3.65625l0 3.359375z" fill-rule="nonzero"></path><path fill="#000000" fill-opacity="0.0" d="m129.13911 505.08267l131.96849 0l0 80.53543l-131.96849 0z" fill-rule="nonzero"></path><path fill="#ffffff" d="m158.0442 552.8304l0 -15.03125l3.03125 0l0 15.03125l-3.03125 0zm15.894394 0l-2.875 0l0 -5.5625q0 -1.765625 -0.1875 -2.28125q-0.1875 -0.515625 -0.609375 -0.796875q-0.40625 -0.296875 -0.984375 -0.296875q-0.75 0 -1.34375 0.421875q-0.59375 0.40625 -0.8125 1.09375q-0.21875 0.671875 -0.21875 2.484375l0 4.9375l-2.890625 0l0 -10.890625l2.671875 0l0 1.59375q1.4375 -1.84375 3.59375 -1.84375q0.953125 0 1.734375 0.34375q0.796875 0.34375 1.203125 0.890625q0.40625 0.53125 0.5625 1.203125q0.15625 0.671875 0.15625 1.9375l0 6.765625zm3.0749512 -12.359375l0 -2.671875l2.875 0l0 2.671875l-2.875 0zm2.875 1.46875l0 10.546875q0 2.09375 -0.28125 2.9375q-0.265625 0.859375 -1.046875 1.34375q-0.765625 0.484375 -1.96875 0.484375q-0.421875 0 -0.921875 -0.078125q-0.5 -0.078125 -1.078125 -0.234375l0.5 -2.453125q0.21875 0.03125 0.40625 0.0625q0.171875 0.03125 0.3125 0.03125q0.453125 0 0.734375 -0.203125q0.28125 -0.1875 0.375 -0.453125q0.09375 -0.265625 0.09375 -1.59375l0 -10.390625l2.875 0zm9.410019 7.421875l2.875 0.484375q-0.5625 1.578125 -1.765625 2.40625q-1.1875 0.828125 -2.96875 0.828125q-2.84375 0 -4.203125 -1.859375q-1.078125 -1.484375 -1.078125 -3.75q0 -2.703125 1.40625 -4.234375q1.421875 -1.546875 3.578125 -1.546875q2.4375 0 3.84375 1.609375q1.40625 1.609375 1.34375 4.921875l-7.21875 0q0.03125 1.28125 0.6875 2.0q0.671875 0.703125 1.671875 0.703125q0.671875 0 1.125 -0.359375q0.46875 -0.375 0.703125 -1.203125zm0.171875 -2.90625q-0.03125 -1.25 -0.65625 -1.90625q-0.609375 -0.65625 -1.5 -0.65625q-0.9375 0 -1.546875 0.6875q-0.625 0.6875 -0.609375 1.875l4.3125 0zm14.877319 -1.296875l-2.84375 0.515625q-0.140625 -0.859375 -0.65625 -1.28125q-0.5 -0.4375 -1.3125 -0.4375q-1.078125 0 -1.71875 0.75q-0.640625 0.734375 -0.640625 2.484375q0 1.9375 0.65625 2.734375q0.65625 0.796875 1.75 0.796875q0.828125 0 1.34375 -0.453125q0.515625 -0.46875 0.734375 -1.609375l2.828125 0.484375q-0.4375 1.9375 -1.6875 2.9375q-1.25 1.0 -3.359375 1.0q-2.375 0 -3.796875 -1.5q-1.421875 -1.515625 -1.421875 -4.1875q0 -2.6875 1.421875 -4.1875q1.421875 -1.515625 3.859375 -1.515625q1.984375 0 3.15625 0.859375q1.171875 0.859375 1.6875 2.609375zm7.3616943 -3.21875l0 2.296875l-1.96875 0l0 4.390625q0 1.328125 0.046875 1.546875q0.0625 0.21875 0.265625 0.375q0.203125 0.140625 0.484375 0.140625q0.40625 0 1.15625 -0.28125l0.25 2.234375q-1.0 0.4375 -2.28125 0.4375q-0.765625 0 -1.390625 -0.265625q-0.625 -0.265625 -0.921875 -0.671875q-0.296875 -0.421875 -0.40625 -1.125q-0.09375 -0.5 -0.09375 -2.03125l0 -4.75l-1.328125 0l0 -2.296875l1.328125 0l0 -2.15625l2.890625 -1.6875l0 3.84375l1.96875 0zm1.4461823 5.296875q0 -1.4375 0.703125 -2.78125q0.703125 -1.34375 2.0 -2.046875q1.296875 -0.71875 2.90625 -0.71875q2.46875 0 4.046875 1.609375q1.578125 1.609375 1.578125 4.0625q0 2.46875 -1.59375 4.09375q-1.59375 1.625 -4.015625 1.625q-1.5 0 -2.859375 -0.671875q-1.359375 -0.6875 -2.0625 -1.984375q-0.703125 -1.3125 -0.703125 -3.1875zm2.953125 0.15625q0 1.609375 0.765625 2.46875q0.765625 0.859375 1.890625 0.859375q1.140625 0 1.890625 -0.859375q0.765625 -0.859375 0.765625 -2.5q0 -1.59375 -0.765625 -2.453125q-0.75 -0.859375 -1.890625 -0.859375q-1.125 0 -1.890625 0.859375q-0.765625 0.859375 -0.765625 2.484375zm13.496826 5.4375l-2.875 0l0 -10.890625l2.671875 0l0 1.546875q0.6875 -1.09375 1.234375 -1.4375q0.546875 -0.359375 1.25 -0.359375q0.984375 0 1.890625 0.546875l-0.890625 2.515625q-0.734375 -0.46875 -1.359375 -0.46875q-0.59375 0 -1.015625 0.328125q-0.421875 0.328125 -0.671875 1.203125q-0.234375 0.875 -0.234375 3.65625l0 3.359375z" fill-rule="nonzero"></path><path fill="#000000" fill-opacity="0.0" d="m288.02625 505.08267l131.9685 0l0 80.53543l-131.9685 0z" fill-rule="nonzero"></path><path fill="#ffffff" d="m316.93134 552.8304l0 -15.03125l3.03125 0l0 15.03125l-3.03125 0zm15.894409 0l-2.875 0l0 -5.5625q0 -1.765625 -0.1875 -2.28125q-0.1875 -0.515625 -0.609375 -0.796875q-0.40625 -0.296875 -0.984375 -0.296875q-0.75 0 -1.34375 0.421875q-0.59375 0.40625 -0.8125 1.09375q-0.21875 0.671875 -0.21875 2.484375l0 4.9375l-2.890625 0l0 -10.890625l2.671875 0l0 1.59375q1.4375 -1.84375 3.59375 -1.84375q0.953125 0 1.734375 0.34375q0.796875 0.34375 1.203125 0.890625q0.40625 0.53125 0.5625 1.203125q0.15625 0.671875 0.15625 1.9375l0 6.765625zm3.0749512 -12.359375l0 -2.671875l2.875 0l0 2.671875l-2.875 0zm2.875 1.46875l0 10.546875q0 2.09375 -0.28125 2.9375q-0.265625 0.859375 -1.046875 1.34375q-0.765625 0.484375 -1.96875 0.484375q-0.421875 0 -0.921875 -0.078125q-0.5 -0.078125 -1.078125 -0.234375l0.5 -2.453125q0.21875 0.03125 0.40625 0.0625q0.171875 0.03125 0.3125 0.03125q0.453125 0 0.734375 -0.203125q0.28125 -0.1875 0.375 -0.453125q0.09375 -0.265625 0.09375 -1.59375l0 -10.390625l2.875 0zm9.410004 7.421875l2.875 0.484375q-0.5625 1.578125 -1.765625 2.40625q-1.1875 0.828125 -2.96875 0.828125q-2.84375 0 -4.203125 -1.859375q-1.078125 -1.484375 -1.078125 -3.75q0 -2.703125 1.40625 -4.234375q1.421875 -1.546875 3.578125 -1.546875q2.4375 0 3.84375 1.609375q1.40625 1.609375 1.34375 4.921875l-7.21875 0q0.03125 1.28125 0.6875 2.0q0.671875 0.703125 1.671875 0.703125q0.671875 0 1.125 -0.359375q0.46875 -0.375 0.703125 -1.203125zm0.171875 -2.90625q-0.03125 -1.25 -0.65625 -1.90625q-0.609375 -0.65625 -1.5 -0.65625q-0.9375 0 -1.546875 0.6875q-0.625 0.6875 -0.609375 1.875l4.3125 0zm14.877319 -1.296875l-2.84375 0.515625q-0.140625 -0.859375 -0.65625 -1.28125q-0.5 -0.4375 -1.3125 -0.4375q-1.078125 0 -1.71875 0.75q-0.640625 0.734375 -0.640625 2.484375q0 1.9375 0.65625 2.734375q0.65625 0.796875 1.75 0.796875q0.828125 0 1.34375 -0.453125q0.515625 -0.46875 0.734375 -1.609375l2.828125 0.484375q-0.4375 1.9375 -1.6875 2.9375q-1.25 1.0 -3.359375 1.0q-2.375 0 -3.796875 -1.5q-1.421875 -1.515625 -1.421875 -4.1875q0 -2.6875 1.421875 -4.1875q1.421875 -1.515625 3.859375 -1.515625q1.984375 0 3.15625 0.859375q1.171875 0.859375 1.6875 2.609375zm7.3616943 -3.21875l0 2.296875l-1.96875 0l0 4.390625q0 1.328125 0.046875 1.546875q0.0625 0.21875 0.265625 0.375q0.203125 0.140625 0.484375 0.140625q0.40625 0 1.15625 -0.28125l0.25 2.234375q-1.0 0.4375 -2.28125 0.4375q-0.765625 0 -1.390625 -0.265625q-0.625 -0.265625 -0.921875 -0.671875q-0.296875 -0.421875 -0.40625 -1.125q-0.09375 -0.5 -0.09375 -2.03125l0 -4.75l-1.328125 0l0 -2.296875l1.328125 0l0 -2.15625l2.890625 -1.6875l0 3.84375l1.96875 0zm1.4461975 5.296875q0 -1.4375 0.703125 -2.78125q0.703125 -1.34375 2.0 -2.046875q1.296875 -0.71875 2.90625 -0.71875q2.46875 0 4.046875 1.609375q1.578125 1.609375 1.578125 4.0625q0 2.46875 -1.59375 4.09375q-1.59375 1.625 -4.015625 1.625q-1.5 0 -2.859375 -0.671875q-1.359375 -0.6875 -2.0625 -1.984375q-0.703125 -1.3125 -0.703125 -3.1875zm2.953125 0.15625q0 1.609375 0.765625 2.46875q0.765625 0.859375 1.890625 0.859375q1.140625 0 1.890625 -0.859375q0.765625 -0.859375 0.765625 -2.5q0 -1.59375 -0.765625 -2.453125q-0.75 -0.859375 -1.890625 -0.859375q-1.125 0 -1.890625 0.859375q-0.765625 0.859375 -0.765625 2.484375zm13.496826 5.4375l-2.875 0l0 -10.890625l2.671875 0l0 1.546875q0.6875 -1.09375 1.234375 -1.4375q0.546875 -0.359375 1.25 -0.359375q0.984375 0 1.890625 0.546875l-0.890625 2.515625q-0.734375 -0.46875 -1.359375 -0.46875q-0.59375 0 -1.015625 0.328125q-0.421875 0.328125 -0.671875 1.203125q-0.234375 0.875 -0.234375 3.65625l0 3.359375z" fill-rule="nonzero"></path><path fill="#000000" fill-opacity="0.0" d="m520.68243 505.08267l131.9685 0l0 80.53543l-131.9685 0z" fill-rule="nonzero"></path><path fill="#ffffff" d="m549.5875 552.8304l0 -15.03125l3.03125 0l0 15.03125l-3.03125 0zm15.894348 0l-2.875 0l0 -5.5625q0 -1.765625 -0.1875 -2.28125q-0.1875 -0.515625 -0.609375 -0.796875q-0.40625 -0.296875 -0.984375 -0.296875q-0.75 0 -1.34375 0.421875q-0.59375 0.40625 -0.8125 1.09375q-0.21875 0.671875 -0.21875 2.484375l0 4.9375l-2.890625 0l0 -10.890625l2.671875 0l0 1.59375q1.4375 -1.84375 3.59375 -1.84375q0.953125 0 1.734375 0.34375q0.796875 0.34375 1.203125 0.890625q0.40625 0.53125 0.5625 1.203125q0.15625 0.671875 0.15625 1.9375l0 6.765625zm3.0749512 -12.359375l0 -2.671875l2.875 0l0 2.671875l-2.875 0zm2.875 1.46875l0 10.546875q0 2.09375 -0.28125 2.9375q-0.265625 0.859375 -1.046875 1.34375q-0.765625 0.484375 -1.96875 0.484375q-0.421875 0 -0.921875 -0.078125q-0.5 -0.078125 -1.078125 -0.234375l0.5 -2.453125q0.21875 0.03125 0.40625 0.0625q0.171875 0.03125 0.3125 0.03125q0.453125 0 0.734375 -0.203125q0.28125 -0.1875 0.375 -0.453125q0.09375 -0.265625 0.09375 -1.59375l0 -10.390625l2.875 0zm9.410034 7.421875l2.875 0.484375q-0.5625 1.578125 -1.765625 2.40625q-1.1875 0.828125 -2.96875 0.828125q-2.84375 0 -4.203125 -1.859375q-1.078125 -1.484375 -1.078125 -3.75q0 -2.703125 1.40625 -4.234375q1.421875 -1.546875 3.578125 -1.546875q2.4375 0 3.84375 1.609375q1.40625 1.609375 1.34375 4.921875l-7.21875 0q0.03125 1.28125 0.6875 2.0q0.671875 0.703125 1.671875 0.703125q0.671875 0 1.125 -0.359375q0.46875 -0.375 0.703125 -1.203125zm0.171875 -2.90625q-0.03125 -1.25 -0.65625 -1.90625q-0.609375 -0.65625 -1.5 -0.65625q-0.9375 0 -1.546875 0.6875q-0.625 0.6875 -0.609375 1.875l4.3125 0zm14.877319 -1.296875l-2.84375 0.515625q-0.140625 -0.859375 -0.65625 -1.28125q-0.5 -0.4375 -1.3125 -0.4375q-1.078125 0 -1.71875 0.75q-0.640625 0.734375 -0.640625 2.484375q0 1.9375 0.65625 2.734375q0.65625 0.796875 1.75 0.796875q0.828125 0 1.34375 -0.453125q0.515625 -0.46875 0.734375 -1.609375l2.828125 0.484375q-0.4375 1.9375 -1.6875 2.9375q-1.25 1.0 -3.359375 1.0q-2.375 0 -3.796875 -1.5q-1.421875 -1.515625 -1.421875 -4.1875q0 -2.6875 1.421875 -4.1875q1.421875 -1.515625 3.859375 -1.515625q1.984375 0 3.15625 0.859375q1.171875 0.859375 1.6875 2.609375zm7.3616943 -3.21875l0 2.296875l-1.96875 0l0 4.390625q0 1.328125 0.046875 1.546875q0.0625 0.21875 0.265625 0.375q0.203125 0.140625 0.484375 0.140625q0.40625 0 1.15625 -0.28125l0.25 2.234375q-1.0 0.4375 -2.28125 0.4375q-0.765625 0 -1.390625 -0.265625q-0.625 -0.265625 -0.921875 -0.671875q-0.296875 -0.421875 -0.40625 -1.125q-0.09375 -0.5 -0.09375 -2.03125l0 -4.75l-1.328125 0l0 -2.296875l1.328125 0l0 -2.15625l2.890625 -1.6875l0 3.84375l1.96875 0zm1.446167 5.296875q0 -1.4375 0.703125 -2.78125q0.703125 -1.34375 2.0 -2.046875q1.296875 -0.71875 2.90625 -0.71875q2.46875 0 4.046875 1.609375q1.578125 1.609375 1.578125 4.0625q0 2.46875 -1.59375 4.09375q-1.59375 1.625 -4.015625 1.625q-1.5 0 -2.859375 -0.671875q-1.359375 -0.6875 -2.0625 -1.984375q-0.703125 -1.3125 -0.703125 -3.1875zm2.953125 0.15625q0 1.609375 0.765625 2.46875q0.765625 0.859375 1.890625 0.859375q1.140625 0 1.890625 -0.859375q0.765625 -0.859375 0.765625 -2.5q0 -1.59375 -0.765625 -2.453125q-0.75 -0.859375 -1.890625 -0.859375q-1.125 0 -1.890625 0.859375q-0.765625 0.859375 -0.765625 2.484375zm13.496826 5.4375l-2.875 0l0 -10.890625l2.671875 0l0 1.546875q0.6875 -1.09375 1.234375 -1.4375q0.546875 -0.359375 1.25 -0.359375q0.984375 0 1.890625 0.546875l-0.890625 2.515625q-0.734375 -0.46875 -1.359375 -0.46875q-0.59375 0 -1.015625 0.328125q-0.421875 0.328125 -0.671875 1.203125q-0.234375 0.875 -0.234375 3.65625l0 3.359375z" fill-rule="nonzero"></path><path fill="#000000" fill-opacity="0.0" d="m679.5696 505.08267l131.9685 0l0 80.53543l-131.9685 0z" fill-rule="nonzero"></path><path fill="#ffffff" d="m708.4747 552.8304l0 -15.03125l3.03125 0l0 15.03125l-3.03125 0zm15.894348 0l-2.875 0l0 -5.5625q0 -1.765625 -0.1875 -2.28125q-0.1875 -0.515625 -0.609375 -0.796875q-0.40625 -0.296875 -0.984375 -0.296875q-0.75 0 -1.34375 0.421875q-0.59375 0.40625 -0.8125 1.09375q-0.21875 0.671875 -0.21875 2.484375l0 4.9375l-2.890625 0l0 -10.890625l2.671875 0l0 1.59375q1.4375 -1.84375 3.59375 -1.84375q0.953125 0 1.734375 0.34375q0.796875 0.34375 1.203125 0.890625q0.40625 0.53125 0.5625 1.203125q0.15625 0.671875 0.15625 1.9375l0 6.765625zm3.0749512 -12.359375l0 -2.671875l2.875 0l0 2.671875l-2.875 0zm2.875 1.46875l0 10.546875q0 2.09375 -0.28125 2.9375q-0.265625 0.859375 -1.046875 1.34375q-0.765625 0.484375 -1.96875 0.484375q-0.421875 0 -0.921875 -0.078125q-0.5 -0.078125 -1.078125 -0.234375l0.5 -2.453125q0.21875 0.03125 0.40625 0.0625q0.171875 0.03125 0.3125 0.03125q0.453125 0 0.734375 -0.203125q0.28125 -0.1875 0.375 -0.453125q0.09375 -0.265625 0.09375 -1.59375l0 -10.390625l2.875 0zm9.410034 7.421875l2.875 0.484375q-0.5625 1.578125 -1.765625 2.40625q-1.1875 0.828125 -2.96875 0.828125q-2.84375 0 -4.203125 -1.859375q-1.078125 -1.484375 -1.078125 -3.75q0 -2.703125 1.40625 -4.234375q1.421875 -1.546875 3.578125 -1.546875q2.4375 0 3.84375 1.609375q1.40625 1.609375 1.34375 4.921875l-7.21875 0q0.03125 1.28125 0.6875 2.0q0.671875 0.703125 1.671875 0.703125q0.671875 0 1.125 -0.359375q0.46875 -0.375 0.703125 -1.203125zm0.171875 -2.90625q-0.03125 -1.25 -0.65625 -1.90625q-0.609375 -0.65625 -1.5 -0.65625q-0.9375 0 -1.546875 0.6875q-0.625 0.6875 -0.609375 1.875l4.3125 0zm14.877319 -1.296875l-2.84375 0.515625q-0.140625 -0.859375 -0.65625 -1.28125q-0.5 -0.4375 -1.3125 -0.4375q-1.078125 0 -1.71875 0.75q-0.640625 0.734375 -0.640625 2.484375q0 1.9375 0.65625 2.734375q0.65625 0.796875 1.75 0.796875q0.828125 0 1.34375 -0.453125q0.515625 -0.46875 0.734375 -1.609375l2.828125 0.484375q-0.4375 1.9375 -1.6875 2.9375q-1.25 1.0 -3.359375 1.0q-2.375 0 -3.796875 -1.5q-1.421875 -1.515625 -1.421875 -4.1875q0 -2.6875 1.421875 -4.1875q1.421875 -1.515625 3.859375 -1.515625q1.984375 0 3.15625 0.859375q1.171875 0.859375 1.6875 2.609375zm7.3616943 -3.21875l0 2.296875l-1.96875 0l0 4.390625q0 1.328125 0.046875 1.546875q0.0625 0.21875 0.265625 0.375q0.203125 0.140625 0.484375 0.140625q0.40625 0 1.15625 -0.28125l0.25 2.234375q-1.0 0.4375 -2.28125 0.4375q-0.765625 0 -1.390625 -0.265625q-0.625 -0.265625 -0.921875 -0.671875q-0.296875 -0.421875 -0.40625 -1.125q-0.09375 -0.5 -0.09375 -2.03125l0 -4.75l-1.328125 0l0 -2.296875l1.328125 0l0 -2.15625l2.890625 -1.6875l0 3.84375l1.96875 0zm1.446167 5.296875q0 -1.4375 0.703125 -2.78125q0.703125 -1.34375 2.0 -2.046875q1.296875 -0.71875 2.90625 -0.71875q2.46875 0 4.046875 1.609375q1.578125 1.609375 1.578125 4.0625q0 2.46875 -1.59375 4.09375q-1.59375 1.625 -4.015625 1.625q-1.5 0 -2.859375 -0.671875q-1.359375 -0.6875 -2.0625 -1.984375q-0.703125 -1.3125 -0.703125 -3.1875zm2.953125 0.15625q0 1.609375 0.765625 2.46875q0.765625 0.859375 1.890625 0.859375q1.140625 0 1.890625 -0.859375q0.765625 -0.859375 0.765625 -2.5q0 -1.59375 -0.765625 -2.453125q-0.75 -0.859375 -1.890625 -0.859375q-1.125 0 -1.890625 0.859375q-0.765625 0.859375 -0.765625 2.484375zm13.496826 5.4375l-2.875 0l0 -10.890625l2.671875 0l0 1.546875q0.6875 -1.09375 1.234375 -1.4375q0.546875 -0.359375 1.25 -0.359375q0.984375 0 1.890625 0.546875l-0.890625 2.515625q-0.734375 -0.46875 -1.359375 -0.46875q-0.59375 0 -1.015625 0.328125q-0.421875 0.328125 -0.671875 1.203125q-0.234375 0.875 -0.234375 3.65625l0 3.359375z" fill-rule="nonzero"></path></g></svg>

