<?xml version="1.0" encoding="utf-8"?>
<!-- Generator: Adobe Illustrator 18.1.0, SVG Export Plug-In . SVG Version: 6.00 Build 0)  -->
<!DOCTYPE svg PUBLIC "-//W3C//DTD SVG 1.1//EN" "http://www.w3.org/Graphics/SVG/1.1/DTD/svg11.dtd">
<svg version="1.1" id="Ebene_1" xmlns="http://www.w3.org/2000/svg" xmlns:xlink="http://www.w3.org/1999/xlink" x="0px" y="0px"
	 viewBox="0 0 595.3 841.9" enable-background="new 0 0 595.3 841.9" xml:space="preserve">
<g>
	<polygon fill="#81B4C5" points="82,617.9 229.1,501.5 215.9,390.5 	"/>
	<polygon fill="#6FA8BC" points="82,617.9 69,421.4 215.9,390.5 	"/>
	<polygon fill="#8BC0D0" points="132,222.7 69,421.4 215.9,390.5 	"/>
	<polygon fill="#81B4C5" points="132,222.7 329.1,331.4 215.9,390.5 	"/>
	<polygon fill="#8BC0D0" points="412.2,437.8 229.1,501.5 215.9,390.5 	"/>
	<polygon fill="#6EA7B8" points="412.2,437.8 329.1,331.4 215.9,390.5 	"/>
	<polygon fill="#81B4C5" points="412.2,437.8 329.1,331.4 526.1,270.5 	"/>
	<polygon fill="#8BC0D0" points="412.2,437.8 509.2,471.4 526.1,270.5 	"/>
	<polyline fill="#82B4C4" points="486.1,550.6 412.2,437.8 229.1,501.5 486.1,550.6 	"/>
	<polyline fill="#82B4C4" points="486.1,550.6 412.2,437.8 509.2,471.4 486.1,550.6 	"/>
	<polyline fill="#6EA7B8" points="412.2,437.8 509.2,471.4 486.1,550.6 	"/>
</g>
</svg>
