<?xml version="1.0" encoding="utf-8"?>
<!-- Generator: Adobe Illustrator 18.1.0, SVG Export Plug-In . SVG Version: 6.00 Build 0)  -->
<!DOCTYPE svg PUBLIC "-//W3C//DTD SVG 1.1//EN" "http://www.w3.org/Graphics/SVG/1.1/DTD/svg11.dtd">
<svg version="1.1" id="Ebene_1" xmlns="http://www.w3.org/2000/svg" xmlns:xlink="http://www.w3.org/1999/xlink" x="0px" y="0px"
	 viewBox="0 0 595.3 841.9" enable-background="new 0 0 595.3 841.9" xml:space="preserve">
<g>
	<polygon fill="#81B4C5" points="505.4,607.9 358.3,491.4 371.4,380.5 	"/>
	<polygon fill="#6FA8BC" points="505.4,607.9 518.4,411.4 371.4,380.5 	"/>
	<polygon fill="#8BC0D0" points="464.3,232.7 518.4,411.4 371.4,380.5 	"/>
	<polygon fill="#81B4C5" points="464.3,232.7 268.2,301.3 371.4,380.5 	"/>
	<polygon fill="#8BC0D0" points="175.2,427.8 358.3,491.4 371.4,380.5 	"/>
	<polygon fill="#6EA7B8" points="175.2,427.8 268.2,301.3 371.4,380.5 	"/>
	<polygon fill="#81B4C5" points="175.2,427.8 268.2,301.3 101.2,270.4 	"/>
	<polygon fill="#8BC0D0" points="175.2,427.8 78.1,461.4 101.2,270.4 	"/>
	<polyline fill="#82B4C4" points="101.2,540.6 175.2,427.8 358.3,491.4 101.2,540.6 	"/>
	<polyline fill="#6EA7B8" points="175.2,427.8 78.1,461.4 101.2,540.6 	"/>
</g>
</svg>
