<?xml version="1.0" encoding="utf-8"?>
<!-- Generator: Adobe Illustrator 18.1.0, SVG Export Plug-In . SVG Version: 6.00 Build 0)  -->
<!DOCTYPE svg PUBLIC "-//W3C//DTD SVG 1.1//EN" "http://www.w3.org/Graphics/SVG/1.1/DTD/svg11.dtd">
<svg version="1.1" id="Ebene_1" xmlns="http://www.w3.org/2000/svg" xmlns:xlink="http://www.w3.org/1999/xlink" x="0px" y="0px"
	 viewBox="0 0 595.3 841.9" enable-background="new 0 0 595.3 841.9" xml:space="preserve">
<g>
	<polygon fill="#4E8797" points="365.2,520.2 232.3,418 181.2,547.4 	"/>
	<polygon fill="#5899AD" points="365.2,520.2 232.3,418 341.3,407.4 	"/>
	<polygon fill="#6EA7B8" points="65,510.2 232.3,418 181.2,547.4 	"/>
	<polygon fill="#81B4C5" points="65,510.2 232.3,418 121.2,357.3 	"/>
	<polygon fill="#4F889A" points="365.2,520.2 508.3,496.6 451.4,607.5 	"/>
	<polygon fill="#6FA8BC" points="585.4,660.3 508.3,496.6 451.4,607.5 	"/>
	<polygon fill="#8BC0D0" points="585.4,660.3 508.3,496.6 611.5,497.4 	"/>
	<polygon fill="#5899AD" points="505.3,380.1 508.3,496.6 611.5,497.4 	"/>
	<polygon fill="#82B4C4" points="505.3,380.1 628.4,396.5 611.5,497.4 	"/>
	<polygon fill="#8BC0D0" points="505.3,380.1 628.4,396.5 541.5,297.3 	"/>
	<polygon fill="#81B4C5" points="505.3,380.1 388.3,316.5 541.5,297.3 	"/>
	<polygon fill="#8BC0D0" points="330.3,180 388.3,316.5 541.5,297.3 	"/>
	<polygon fill="#457F92" points="365.2,520.2 508.3,496.6 341.3,407.4 	"/>
	<polygon fill="#4E8797" points="505.3,380.1 508.3,496.6 341.3,407.4 	"/>
	<polygon fill="#5899AD" points="505.3,380.1 388.3,316.5 341.3,407.4 	"/>
	<polygon fill="#81B4C5" points="275.2,300.1 232.3,418 341.3,407.4 	"/>
	<polygon fill="#6EA7B8" points="275.2,300.1 388.3,316.5 341.3,407.4 	"/>
	<polygon fill="#6EA7B8" points="275.2,300.1 388.3,316.5 330.3,180 	"/>
	<polygon fill="#84BBCD" points="275.2,300.1 232.3,418 121.2,357.3 	"/>
	<polygon fill="#79A9B8" points="121.2,357.3 -32,466.5 65,510.2 	"/>
	<polygon fill="#84BBCD" points="121.2,357.3 -32,466.5 -5,340.1 	"/>
</g>
</svg>
