<svg class="thtrm-logo"
     aria-labelledby="title"
     aria-describedby="description"
     role="img"
     xmlns="http://www.w3.org/2000/svg"
     xmlns:xlink="http://www.w3.org/1999/xlink"
     viewBox="0 0 384 100">
    <title id="title">thoughtram</title>
    <desc id="description">The thoughtram logo</desc>
    <defs>
        <path d="M0.0397350993,47.6828492 L0.0397350993,47.3829157 L2.33245033,32.9847682 L5.73112583,30.6490066 L13.9086093,30.6490066 L13.4456954,41.3470199 C12.1569536,41.813245 11.2099338,43.0178808 11.1470199,44.4721854 C11.0635762,46.3953642 12.5556291,48.0225166 14.4788079,48.1059603 C16.4019868,48.1887417 18.0291391,46.6966887 18.1119205,44.7735099 C18.1748344,43.3198675 17.3364238,42.0377483 16.0927152,41.4615894 L16.5907285,29.9490066 L25.8589404,21.8615894 C27.0854305,22.4735099 28.610596,22.3291391 29.7072848,21.3715232 C31.1576159,20.1066225 31.3072848,17.9039735 30.0417219,16.4536424 C28.7761589,15.0033113 26.5741722,14.8529801 25.1238411,16.1192053 C24.0271523,17.0761589 23.6768212,18.5675497 24.1172185,19.8655629 L14.7953642,28 L7.65761589,28 L7.65761589,16.6668874 L15.7059603,8.20596026 L20.0496689,8.59735099 L23.3006623,4.58344371 L34.6172185,4.58344371 L36.5039735,0.589403974 L57.3602649,0.589403974 L63.4635762,4.30397351 L63.4635762,7.16490066 L58.2953642,10.9794702 L47.4695364,10.9794702 C46.9476821,9.71258278 45.7033113,8.81854305 44.2476821,8.81854305 C42.3231788,8.81854305 40.7622517,10.3794702 40.7622517,12.3046358 C40.7622517,14.2298013 42.3231788,15.7907285 44.2476821,15.7907285 C45.7039735,15.7907285 46.9483444,14.8966887 47.4701987,13.6284768 L57.4066225,13.6284768 L57.4039735,17.8205298 L50.202649,22.1324503 L51.8192053,32.1609272 C50.6509934,32.8774834 49.9668874,34.2483444 50.1980132,35.6854305 C50.5046358,37.5860927 52.2940397,38.8788079 54.194702,38.5721854 C56.0953642,38.2655629 57.3874172,36.4761589 57.081457,34.5761589 C56.8496689,33.1390728 55.7688742,32.0523179 54.4350993,31.7390728 L53.1039735,23.4827815 L60.0516556,19.3218543 L60.0556291,12.9735099 L65.0668874,9.27350993 L75.1430464,12.1794702 L75.1430464,18.3013245 L84.1,22.2748344 L87.1523179,34.3178808 L82.1033113,43.192053 L76.3264901,43.192053 L76.3264901,37.6463576 L73.884106,32.2728477 C74.8218543,31.2735099 75.1211921,29.7701987 74.518543,28.4456954 C73.7218543,26.6933775 71.6549669,25.9178808 69.902649,26.7145695 C68.1503311,27.510596 67.3754967,29.5774834 68.1715232,31.3304636 C68.7741722,32.6556291 70.102649,33.418543 71.4721854,33.3688742 L73.6774834,38.2205298 L73.6774834,45.2735099 L71.1192053,49.2940397 L46.2953642,49.2940397 L43.8304636,53.5066225 L40.1847682,53.5066225 L32.8589404,45.4649007 L34.907947,36.4582781 C36.2596026,36.2311258 37.4072848,35.215894 37.7304636,33.7966887 C38.1576159,31.9198675 36.981457,30.0509934 35.1046358,29.6238411 C33.2278146,29.197351 31.3596026,30.3728477 30.9324503,32.2496689 C30.6092715,33.6688742 31.205298,35.0807947 32.3251656,35.8708609 L29.9695364,46.2251656 L37.4880795,54.4794702 L33.9516556,58.2807947 L25.7423841,58.2807947 L20.9715232,62.7218543 L9.27350993,59.394702 L0.0397350993,47.6828492 L0.0397350993,47.6828492 Z"
              id="path-1"></path>
    </defs>
    <g id="Page-1" stroke="none" stroke-width="1" fill="none" fill-rule="evenodd">
        <g id="thoughtram_logo_horizontal_01b">
            <polyline id="Fill-1" fill="#1A1918"
                      points="59.505298 74.2516556 50.5403974 74.2516556 50.5403974 65.9549669 78.3397351 65.9549669 78.3397351 74.2516556 69.3754967 74.2516556 59.505298 99.2847682 59.505298 74.2516556"></polyline>
            <polyline id="Fill-2" fill="#1A1918"
                      points="80.7238411 65.9549669 89.1629139 65.9549669 89.1629139 78.8298013 102.227815 78.8298013 102.227815 65.9549669 110.66755 65.9549669 110.66755 99.2847682 102.227815 99.2847682 102.227815 85.8390728 89.1629139 85.8390728 89.1629139 99.2847682 80.7238411 99.2847682 80.7238411 65.9549669"></polyline>
            <path d="M136.081457,90.9410596 C137.480132,90.1774834 138.592053,89.0807947 139.419205,87.6503311 C140.245695,86.2205298 140.659603,84.5509934 140.659603,82.6437086 C140.659603,80.7364238 140.253642,79.0761589 139.443709,77.6609272 C138.63245,76.2470199 137.527815,75.1503311 136.129801,74.3708609 C134.729801,73.592053 133.172848,73.2033113 131.456291,73.2033113 C129.707285,73.2033113 128.133775,73.592053 126.735762,74.3708609 C125.337086,75.1503311 124.23245,76.2470199 123.421854,77.6609272 C122.611921,79.0761589 122.20596,80.7364238 122.20596,82.6437086 C122.20596,84.5509934 122.611921,86.2205298 123.421854,87.6503311 C124.23245,89.0807947 125.345033,90.1774834 126.759603,90.9410596 C128.17351,91.7033113 129.739735,92.0847682 131.456291,92.0847682 C133.14106,92.0847682 134.682119,91.7033113 136.081457,90.9410596 Z M122.325166,97.8066225 C119.607285,96.3450331 117.461589,94.3019868 115.888079,91.6794702 C114.31457,89.0569536 113.527815,86.0456954 113.527815,82.6437086 C113.527815,79.2430464 114.31457,76.2231788 115.888079,73.5847682 C117.461589,70.9456954 119.607285,68.8960265 122.325166,67.4337748 C125.043046,65.9715232 128.086755,65.2397351 131.456291,65.2397351 C134.79404,65.2397351 137.821854,65.9715232 140.539735,67.4337748 C143.257616,68.8960265 145.395364,70.9456954 146.95298,73.5847682 C148.509934,76.2231788 149.289404,79.2430464 149.289404,82.6437086 C149.289404,86.0456954 148.509934,89.0569536 146.95298,91.6794702 C145.395364,94.3019868 143.257616,96.3450331 140.539735,97.8066225 C137.821854,99.2695364 134.79404,100 131.456291,100 C128.086755,100 125.043046,99.2695364 122.325166,97.8066225 L122.325166,97.8066225 Z"
                  id="Fill-4" fill="#1A1918"></path>
            <path d="M155.917219,95.9708609 C153.37351,93.2854305 152.102649,89.7324503 152.102649,85.3145695 L152.102649,65.9549669 L160.542384,65.9549669 L160.542384,85.4092715 C160.542384,87.6350993 161.137748,89.3192053 162.330464,90.4635762 C163.522517,91.6086093 165.166887,92.1807947 167.264901,92.1807947 C169.362914,92.1807947 171,91.6086093 172.176159,90.4635762 C173.352318,89.3192053 173.940397,87.6350993 173.940397,85.4092715 L173.940397,65.9549669 L182.380795,65.9549669 L182.380795,85.3145695 C182.380795,89.7649007 181.116556,93.3245033 178.590066,95.9953642 C176.062252,98.6655629 172.287417,100 167.264901,100 C162.242384,100 158.459603,98.6576159 155.917219,95.9708609"
                  id="Fill-5" fill="#1A1918"></path>
            <path d="M194.086093,97.9019868 C191.336424,96.5039735 189.21457,94.4927152 187.721192,91.8701987 C186.22649,89.2476821 185.47947,86.1721854 185.47947,82.6437086 C185.47947,79.1152318 186.22649,76.0403974 187.721192,73.4178808 C189.21457,70.7953642 191.336424,68.7768212 194.086093,67.3615894 C196.835762,65.9476821 200.022517,65.2397351 203.64702,65.2397351 C206.062252,65.2397351 208.200662,65.4708609 210.059603,65.9311258 C211.919868,66.392053 213.643709,67.1317881 215.233775,68.1490066 L215.233775,76.1589404 C213.834437,75.0470199 212.253642,74.2443709 210.489404,73.7516556 C208.725166,73.2582781 206.698013,73.0119205 204.409272,73.0119205 C202.438411,73.0119205 200.682119,73.4013245 199.14106,74.1801325 C197.598675,74.9596026 196.382781,76.0801325 195.492715,77.5417219 C194.603311,79.0039735 194.158278,80.705298 194.158278,82.6437086 C194.158278,85.6642384 195.040397,88.0490066 196.804636,89.7960265 C198.568874,91.5450331 200.960265,92.418543 203.980795,92.418543 C205.665563,92.418543 207.07947,92.1324503 208.224503,91.5602649 L208.224503,86.2205298 L203.122517,86.2205298 L203.122517,80.3072848 L216.235099,80.3072848 L216.235099,96.9013245 C212.833113,98.9675497 208.637086,100 203.64702,100 C200.022517,100 196.835762,99.3006623 194.086093,97.9019868"
                  id="Fill-6" fill="#1A1918"></path>
            <polyline id="Fill-8" fill="#1A1918"
                      points="219.572848 65.9549669 228.011921 65.9549669 228.011921 78.8298013 241.076821 78.8298013 241.076821 65.9549669 249.517219 65.9549669 249.517219 99.2847682 241.076821 99.2847682 241.076821 85.8390728 228.011921 85.8390728 228.011921 99.2847682 219.572848 99.2847682 219.572848 65.9549669"></polyline>
            <polyline id="Fill-9" fill="#1A1918"
                      points="261.531788 73.0602649 252.138411 73.0602649 252.138411 65.9549669 279.412583 65.9549669 279.412583 73.0602649 269.971523 73.0602649 269.971523 99.2847682 261.531788 99.2847682 261.531788 73.0602649"></polyline>
            <path d="M295.529139,81.7377483 C297.213245,81.7377483 298.516556,81.4125828 299.438411,80.7609272 C300.360927,80.1092715 300.821854,78.9887417 300.821854,77.3986755 C300.821854,75.7463576 300.368874,74.6099338 299.462252,73.989404 C298.556954,73.3695364 297.245695,73.0602649 295.529139,73.0602649 L290.474834,73.0602649 L290.474834,81.7377483 L295.529139,81.7377483 Z M282.035099,65.9549669 L297.006623,65.9549669 C300.917219,65.9549669 303.976159,66.9403974 306.186093,68.9112583 C308.395364,70.8827815 309.5,73.7119205 309.5,77.3986755 C309.5,79.8788079 308.95894,81.9927152 307.878146,83.7410596 C306.798013,85.4887417 305.271523,86.792053 303.300662,87.6503311 L309.213907,99.2847682 L300.535762,99.2847682 L295.242384,88.8430464 L290.474834,88.8430464 L290.474834,99.2847682 L282.035099,99.2847682 L282.035099,65.9549669 L282.035099,65.9549669 Z"
                  id="Fill-10" fill="#1A1918"></path>
            <path d="M332.545033,85.9337748 L328.491391,74.7284768 L324.391391,85.9337748 L332.545033,85.9337748 Z M324.343709,65.9549669 L332.640397,65.9549669 L345.943709,99.2847682 L337.313245,99.2847682 L334.643046,92.418543 L322.340397,92.418543 L319.670861,99.2847682 L310.992715,99.2847682 L324.343709,65.9549669 L324.343709,65.9549669 Z"
                  id="Fill-11" fill="#1A1918"></path>
            <polyline id="Fill-12" fill="#1A1918"
                      points="348.017219 65.9549669 356.123179 65.9549669 365.754967 86.6013245 375.433775 65.9549669 383.492053 65.9549669 383.492053 99.2847682 375.624503 99.2847682 375.624503 82.5483444 367.662252 99.2847682 363.84702 99.2847682 355.93245 82.5483444 355.93245 99.2847682 348.017219 99.2847682 348.017219 65.9549669"></polyline>
            <g id="Group-44">
                <mask id="mask-2" fill="white">
                    <use xlink:href="#path-1"></use>
                </mask>
                <g id="Clip-14"></g>
                <polyline id="Fill-13" fill="#74C0D0" mask="url(#mask-2)"
                          points="9.27350993 59.394702 14.6298013 44.6231788 25.7423841 58.2807947 20.9715232 62.7218543 9.27350993 59.394702"></polyline>
                <polyline id="Fill-15" fill="#65A1B0" mask="url(#mask-2)"
                          points="38.3927152 53.5066225 31.4145695 45.8370861 14.6298013 44.6231788 25.7423841 58.2807947 33.9516556 58.2807947 38.3927152 53.5066225"></polyline>
                <polyline id="Fill-16" fill="#65A1B0" mask="url(#mask-2)"
                          points="0 47.6324503 14.6298013 44.6231788 9.27350993 59.394702 0 47.6324503"></polyline>
                <polyline id="Fill-17" fill="#518F9C" mask="url(#mask-2)"
                          points="0 47.6324503 2.33245033 32.9847682 14.6298013 44.6231788 0 47.6324503"></polyline>
                <polyline id="Fill-18" fill="#457F8B" mask="url(#mask-2)"
                          points="2.33245033 32.9847682 14.6298013 44.6231788 34.3211921 33.0231788 15.292053 29.3245033 7.65761589 29.3245033 2.33245033 32.9847682"></polyline>
                <polyline id="Fill-19" fill="#518F9C" mask="url(#mask-2)"
                          points="34.3211921 33.0231788 14.6298013 44.6231788 31.4145695 45.8370861 34.3211921 33.0231788"></polyline>
                <polyline id="Fill-20" fill="#65A1B0" mask="url(#mask-2)"
                          points="15.7059603 8.20596026 27.4152318 18.7450331 7.65761589 16.6668874 15.7059603 8.20596026"></polyline>
                <polyline id="Fill-21" fill="#74C0D0" mask="url(#mask-2)"
                          points="7.65761589 16.6668874 27.4152318 18.7450331 15.292053 29.3245033 7.65761589 29.3245033 7.65761589 16.6668874"></polyline>
                <polyline id="Fill-22" fill="#457F8B" mask="url(#mask-2)"
                          points="20.0496689 8.59735099 27.4152318 18.7450331 15.7059603 8.20596026 20.0496689 8.59735099"></polyline>
                <polyline id="Fill-23" fill="#74C0D0" mask="url(#mask-2)"
                          points="23.3006623 4.58344371 27.4152318 18.7450331 20.0496689 8.59735099 23.3006623 4.58344371"></polyline>
                <polyline id="Fill-24" fill="#518F9C" mask="url(#mask-2)"
                          points="34.6172185 4.58344371 23.3006623 4.58344371 27.4152318 18.7450331 34.6172185 4.58344371"></polyline>
                <polyline id="Fill-25" fill="#74C0D0" mask="url(#mask-2)"
                          points="34.6172185 4.58344371 44.2476821 12.3046358 36.5039735 0.589403974 34.6172185 4.58344371"></polyline>
                <polyline id="Fill-26" fill="#457F8B" mask="url(#mask-2)"
                          points="36.5039735 0.589403974 44.2476821 12.3046358 57.3602649 0.589403974 36.5039735 0.589403974"></polyline>
                <polyline id="Fill-27" fill="#518F9C" mask="url(#mask-2)"
                          points="57.3602649 0.589403974 44.2476821 12.3046358 58.7317881 12.3046358 63.4635762 8.81125828 63.4635762 4.30397351 57.3602649 0.589403974"></polyline>
                <polyline id="Fill-28" fill="#65A1B0" mask="url(#mask-2)"
                          points="34.6172185 4.58344371 44.2476821 12.3046358 27.4152318 18.7450331 34.6172185 4.58344371"></polyline>
                <polyline id="Fill-29" fill="#65A1B0" mask="url(#mask-2)"
                          points="27.4152318 18.7450331 34.3211921 33.0231788 15.292053 29.3245033 27.4152318 18.7450331"></polyline>
                <polyline id="Fill-30" fill="#518F9C" mask="url(#mask-2)"
                          points="27.4152318 18.7450331 34.3211921 33.0231788 53.6397351 35.1304636 27.4152318 18.7450331"></polyline>
                <polyline id="Fill-31" fill="#74C0D0" mask="url(#mask-2)"
                          points="27.4152318 18.7450331 53.6397351 35.1304636 44.2476821 12.3046358 27.4152318 18.7450331"></polyline>
                <polyline id="Fill-32" fill="#65A1B0" mask="url(#mask-2)"
                          points="44.2476821 12.3046358 53.6397351 35.1304636 51.6529801 22.807947 58.7278146 18.5708609 58.7317881 12.3046358 44.2476821 12.3046358"></polyline>
                <polyline id="Fill-33" fill="#74C0D0" mask="url(#mask-2)"
                          points="46.2953642 49.2940397 53.6397351 35.1304636 71.1192053 49.2940397 46.2953642 49.2940397"></polyline>
                <polyline id="Fill-34" fill="#457F8B" mask="url(#mask-2)"
                          points="71.1192053 49.2940397 53.6397351 35.1304636 75.0019868 43.192053 71.1192053 49.2940397"></polyline>
                <polyline id="Fill-35" fill="#65A1B0" mask="url(#mask-2)"
                          points="34.3211921 33.0231788 43.8304636 53.5066225 46.2953642 49.2940397 53.6397351 35.1304636 34.3211921 33.0231788"></polyline>
                <polyline id="Fill-36" fill="#74C0D0" mask="url(#mask-2)"
                          points="43.8304636 53.5066225 34.3211921 33.0231788 31.4145695 45.8370861 38.3927152 53.5066225 43.8304636 53.5066225"></polyline>
                <polyline id="Fill-37" fill="#518F9C" mask="url(#mask-2)"
                          points="75.1430464 18.3013245 71.3450331 29.8880795 84.1 22.2748344 75.1430464 18.3013245"></polyline>
                <polyline id="Fill-38" fill="#65A1B0" mask="url(#mask-2)"
                          points="84.1 22.2748344 71.3450331 29.8880795 87.1523179 34.3178808 84.1 22.2748344"></polyline>
                <polyline id="Fill-39" fill="#74C0D0" mask="url(#mask-2)"
                          points="87.1523179 34.3178808 71.3450331 29.8880795 82.1033113 43.192053 87.1523179 34.3178808"></polyline>
                <polyline id="Fill-40" fill="#65A1B0" mask="url(#mask-2)"
                          points="71.3450331 29.8880795 53.6397351 35.1304636 75.0019868 43.192053 82.1033113 43.192053 71.3450331 29.8880795"></polyline>
                <polyline id="Fill-41" fill="#518F9C" mask="url(#mask-2)"
                          points="53.6397351 35.1304636 71.3450331 29.8880795 58.7278146 18.5708609 51.6529801 22.807947 53.6397351 35.1304636"></polyline>
                <polyline id="Fill-42" fill="#457F8B" mask="url(#mask-2)"
                          points="75.1430464 12.1794702 75.1430464 18.3013245 71.3450331 29.8880795 63.4635762 8.81125828 75.1430464 12.1794702"></polyline>
                <polyline id="Fill-43" fill="#65A1B0" mask="url(#mask-2)"
                          points="64.6218543 7.95629139 71.3450331 29.8880795 58.7278146 18.5708609 58.7317881 12.3046358 64.6218543 7.95629139"></polyline>
            </g>
        </g>
    </g>
</svg>
