<?xml version="1.0" encoding="utf-8"?>
<!-- Generator: Adobe Illustrator 15.1.0, SVG Export Plug-In . SVG Version: 6.00 Build 0)  -->
<!DOCTYPE svg PUBLIC "-//W3C//DTD SVG 1.1//EN" "http://www.w3.org/Graphics/SVG/1.1/DTD/svg11.dtd">
<svg version="1.1" id="Layer_1" xmlns="http://www.w3.org/2000/svg" xmlns:xlink="http://www.w3.org/1999/xlink" x="0px" y="0px"
	 width="2316px" height="1412px" viewBox="1233.386 2916.962 1916 1412" enable-background="new 1233.386 2916.962 1916 1412"
	 xml:space="preserve">
<polygon fill="#4D8697" points="2638.745,3939.601 2771.622,3837.385 2822.729,3966.858 "/>
<polygon fill="#6CA6B7" points="2938.923,3929.595 2771.622,3837.385 2822.729,3966.858 "/>
<polygon fill="#7FB4C5" points="2938.923,3929.595 2771.622,3837.385 2882.765,3776.747 "/>
<polygon fill="#83BBCD" points="2938.923,3929.595 2785.628,4056.513 2822.729,3966.858 "/>
<polygon fill="#5899AD" points="2638.745,3939.601 2785.822,4056.053 2822.729,3966.858 "/>
<polygon fill="#7FB4C5" points="2638.745,3939.601 2785.822,4056.053 2772.7,4166.976 "/>
<polygon fill="#6EA8BB" points="2638.745,3939.601 2625.726,4136.1 2772.7,4166.976 "/>
<polygon fill="#8ABFD0" points="2679.771,4314.822 2625.726,4136.1 2772.7,4166.976 "/>
<polygon fill="#7FB4C5" points="2679.771,4314.822 2875.871,4246.164 2772.7,4166.976 "/>
<polygon fill="#5F95A5" points="2638.745,3939.601 2625.726,4136.1 2552.565,4026.894 "/>
<polygon fill="#78A9B7" points="2508.663,4139.718 2625.726,4136.1 2552.565,4026.894 "/>
<polygon fill="#6EA8BB" points="2508.663,4139.718 2625.726,4136.1 2679.762,4314.779 "/>
<polygon fill="#7FB4C5" points="2508.663,4139.718 2515.656,4246.164 2679.762,4314.779 "/>
<polygon fill="#4E889A" points="2638.745,3939.601 2495.643,3915.971 2552.565,4026.894 "/>
<polygon fill="#6EA8BB" points="2418.605,4079.683 2495.643,3915.971 2552.565,4026.894 "/>
<polygon fill="#7FB4C5" points="2418.605,4079.683 2508.695,4139.724 2552.565,4026.894 "/>
<polygon fill="#4D8697" points="2418.605,4079.683 2508.695,4139.724 2402.47,4176.981 "/>
<polygon fill="#5899AD" points="2515.667,4245.782 2508.695,4139.724 2402.47,4176.981 "/>
<polygon fill="#7FB4C5" points="2515.667,4245.782 2368.606,4299.817 2402.47,4176.981 "/>
<polygon fill="#6EA8BB" points="2288.523,4189.747 2368.606,4299.817 2402.47,4176.981 "/>
<polygon fill="#7FB4C5" points="2288.523,4189.747 2368.606,4299.817 2246.372,4269.032 "/>
<polygon fill="#6EA8BB" points="2288.523,4189.747 2155.427,4176.123 2246.372,4269.032 "/>
<polygon fill="#8ABFD0" points="2418.605,4079.683 2495.643,3915.971 2392.463,3916.829 "/>
<polygon fill="#78A9B7" points="2418.605,4079.683 2315.529,4006.023 2392.463,3916.829 "/>
<polygon fill="#437E91" points="2418.605,4079.683 2315.529,4006.023 2402.47,4176.981 "/>
<polygon fill="#4D8697" points="2288.523,4189.747 2315.529,4006.023 2402.47,4176.981 "/>
<polygon fill="#5F95A5" points="2288.523,4189.747 2315.529,4006.023 2212.349,4066.917 "/>
<polygon fill="#78A9B7" points="2288.523,4189.747 2155.427,4176.123 2212.349,4066.917 "/>
<polygon fill="#80B4C4" points="2288.523,3889.571 2315.529,4006.023 2392.463,3916.829 "/>
<polygon fill="#4D8697" points="2288.523,3889.571 2315.529,4006.023 2217.356,3936.841 "/>
<polygon fill="#80B4C4" points="2288.523,3889.571 2175.44,3845.93 2217.356,3936.841 "/>
<polygon fill="#5F95A5" points="2288.523,3889.571 2175.44,3845.93 2217.356,3936.841 "/>
<polygon fill="#437E91" points="2212.349,4066.917 2315.529,4006.023 2217.356,3936.841 "/>
<polygon fill="#4D8697" points="2212.349,4066.917 2125.408,3986.012 2217.356,3936.841 "/>
<polygon fill="#5899AD" points="2498.656,3799.519 2495.643,3915.971 2392.463,3916.829 "/>
<polygon fill="#80B4C4" points="2498.656,3799.519 2375.567,3815.912 2392.463,3916.829 "/>
<polygon fill="#6EA8BB" points="2368.574,3679.448 2375.567,3815.912 2262.381,3796.759 "/>
<polygon fill="#5F95A5" points="2288.523,3889.571 2375.567,3815.912 2392.463,3916.829 "/>
<polygon fill="#78A9B7" points="2288.523,3889.571 2375.567,3815.912 2262.381,3796.759 "/>
<polygon fill="#6EA8BB" points="2288.523,3889.571 2175.44,3845.93 2262.381,3796.759 "/>
<polygon fill="#5899AD" points="2498.656,3799.519 2375.567,3815.912 2462.508,3716.712 "/>
<polygon fill="#5F95A5" points="2498.656,3799.519 2615.719,3735.865 2462.508,3716.712 "/>
<polygon fill="#78A9B7" points="2368.574,3679.448 2375.567,3815.912 2462.508,3716.712 "/>
<polygon fill="#437E91" points="2638.745,3939.601 2495.643,3915.971 2662.635,3826.776 "/>
<polygon fill="#4D8697" points="2498.656,3799.519 2495.643,3915.971 2662.635,3826.776 "/>
<polygon fill="#5899AD" points="2498.656,3799.519 2615.719,3735.865 2662.635,3826.776 "/>
<polygon fill="#5899AD" points="2638.745,3939.601 2771.661,3837.411 2662.635,3826.776 "/>
<polygon fill="#7FB4C5" points="2728.802,3719.472 2771.661,3837.411 2662.635,3826.776 "/>
<polygon fill="#6CA6B7" points="2728.802,3719.472 2615.716,3735.917 2662.635,3826.776 "/>
<polygon fill="#78A9B7" points="2728.802,3719.472 2771.661,3837.411 2882.765,3776.747 "/>
<polygon fill="#83BBCD" points="2728.802,3719.472 2901.737,3647.3 2882.765,3776.747 "/>
<polygon fill="#8ABFD0" points="2968.94,4119.706 2785.822,4056.053 2772.7,4166.976 "/>
<polygon fill="#6CA6B7" points="2968.94,4119.706 2875.875,4246.164 2772.7,4166.976 "/>
<polygon fill="#7FB4C5" points="2968.94,4119.706 2875.875,4246.164 3042.858,4277.04 "/>
<polygon fill="#8ABFD0" points="2968.94,4119.706 3065.986,4086.07 3042.858,4277.04 "/>
<polyline fill="#80B4C4" points="3042.858,4006.882 2968.94,4119.706 2785.822,4056.053 3042.858,4006.882 "/>
<polyline fill="#80B4C4" points="3042.858,4006.882 2968.94,4119.706 3065.986,4086.07 3042.858,4006.882 "/>
<polyline fill="#6CA6B7" points="2968.94,4119.706 3065.986,4086.07 3042.858,4006.882 "/>
<polyline fill="#78A9B7" points="3042.858,4006.882 2938.923,3929.595 2785.822,4056.053 3042.858,4006.882 "/>
<polyline fill="#80B4C4" points="3042.858,4006.882 2938.923,3929.595 3035.969,3885.953 3042.858,4006.882 "/>
<polygon fill="#78A9B7" points="2882.765,3776.747 3035.969,3885.953 2938.923,3929.595 "/>
<polygon fill="#4D8697" points="2882.765,3776.747 3035.969,3885.953 3008.964,3759.495 "/>
<polygon fill="#6CA6B7" points="2882.765,3776.747 2901.737,3647.3 3008.964,3759.495 "/>
<polygon fill="#5899AD" points="3064.107,3559.387 2901.737,3647.3 3008.964,3759.495 "/>
<polygon fill="#4D8697" points="1692.122,3859.554 1559.241,3757.338 1508.131,3886.812 "/>
<polygon fill="#6CA6B7" points="1391.932,3849.548 1559.241,3757.338 1508.131,3886.812 "/>
<polygon fill="#7FB4C5" points="1391.932,3849.548 1559.241,3757.338 1448.093,3696.7 "/>
<polygon fill="#83BBCD" points="1391.932,3849.548 1545.234,3976.466 1508.131,3886.812 "/>
<polygon fill="#5899AD" points="1692.122,3859.554 1545.04,3976.006 1508.131,3886.812 "/>
<polygon fill="#7FB4C5" points="1692.122,3859.554 1545.04,3976.006 1558.163,4086.929 "/>
<polygon fill="#6EA8BB" points="1692.122,3859.554 1705.142,4056.053 1558.163,4086.929 "/>
<polygon fill="#8ABFD0" points="1642.09,4254.787 1705.142,4056.053 1558.163,4086.929 "/>
<polygon fill="#7FB4C5" points="1642.09,4254.787 1444.98,4146.105 1558.163,4086.929 "/>
<polygon fill="#5F95A5" points="1692.122,3859.554 1705.142,4056.053 1778.302,3946.847 "/>
<polygon fill="#78A9B7" points="1822.205,4059.671 1705.142,4056.053 1778.302,3946.847 "/>
<polygon fill="#6EA8BB" points="1822.205,4059.671 1705.142,4056.053 1642.1,4254.744 "/>
<polygon fill="#7FB4C5" points="1822.205,4059.671 1815.211,4166.117 1642.1,4254.744 "/>
<polygon fill="#4E889A" points="1692.122,3859.554 1835.224,3835.924 1778.302,3946.847 "/>
<polygon fill="#6EA8BB" points="1912.262,3999.636 1835.224,3835.924 1778.302,3946.847 "/>
<polygon fill="#7FB4C5" points="1912.262,3999.636 1822.172,4059.677 1778.302,3946.847 "/>
<polygon fill="#78A9B7" points="1912.262,3999.636 1822.172,4059.677 1928.397,4096.935 "/>
<polygon fill="#8ABFD0" points="1815.2,4165.735 1822.172,4059.677 1928.397,4096.935 "/>
<polygon fill="#6EA8BB" points="1815.2,4165.735 1952.254,4269.8 1928.397,4096.935 "/>
<polygon fill="#7FB4C5" points="2042.344,4109.7 1952.254,4269.8 1928.397,4096.935 "/>
<polygon fill="#8ABFD0" points="2042.344,4109.7 1952.254,4269.8 2155.427,4176.123 "/>
<polygon fill="#7FB4C5" points="2042.344,4109.7 2212.349,4066.917 2155.427,4176.123 "/>
<polygon fill="#8ABFD0" points="1912.262,3999.636 1835.224,3835.924 1938.404,3836.782 "/>
<polygon fill="#78A9B7" points="1912.262,3999.636 2015.338,3925.977 1938.404,3836.782 "/>
<polygon fill="#5F95A5" points="1912.262,3999.636 2015.338,3925.977 1928.397,4096.935 "/>
<polygon fill="#78A9B7" points="2042.344,4109.7 2015.338,3925.977 1928.397,4096.935 "/>
<polygon fill="#78A9B7" points="2042.344,4109.7 2015.338,3925.977 2125.408,3986.021 "/>
<polygon fill="#78A9B7" points="2042.344,4109.7 2212.349,4066.917 2125.408,3986.021 "/>
<polygon fill="#4D8697" points="2042.344,3809.524 2015.338,3925.977 1938.404,3836.782 "/>
<polygon fill="#437E91" points="2042.344,3809.524 2015.338,3925.977 2175.44,3845.93 "/>
<polygon fill="#80B4C4" points="2042.344,3809.524 2155.427,3765.883 2175.44,3845.93 "/>
<polygon fill="#4D8697" points="2042.344,3809.524 2155.427,3765.883 2175.44,3845.93 "/>
<polygon fill="#5899AD" points="2262.401,3796.788 2155.427,3765.883 2175.44,3845.93 "/>
<polygon fill="#80B4C4" points="2262.401,3796.788 2155.427,3765.883 2368.574,3679.448 "/>
<polygon fill="#80B4C4" points="2125.408,3986.021 2015.338,3925.977 2175.44,3845.93 "/>
<polygon fill="#6EA8BB" points="2125.408,3986.021 2217.356,3936.841 2175.44,3845.93 "/>
<polygon fill="#5899AD" points="1832.211,3719.472 1835.224,3835.924 1938.404,3836.782 "/>
<polygon fill="#80B4C4" points="1832.211,3719.472 1955.3,3735.865 1938.404,3836.782 "/>
<polygon fill="#80B4C4" points="1962.293,3599.401 1955.3,3735.865 2068.486,3716.712 "/>
<polygon fill="#8ABFD0" points="1962.293,3599.401 2192.883,3619.958 2068.486,3716.712 "/>
<polygon fill="#5899AD" points="2042.344,3809.524 1955.3,3735.865 1938.404,3836.782 "/>
<polygon fill="#78A9B7" points="2042.344,3809.524 1955.3,3735.865 2068.486,3716.712 "/>
<polygon fill="#6EA8BB" points="2042.344,3809.524 2155.427,3765.883 2068.486,3716.712 "/>
<polygon fill="#78A9B7" points="2192.883,3619.958 2155.427,3765.883 2068.486,3716.712 "/>
<polygon fill="#6CA6B7" points="2192.883,3619.958 2155.427,3765.883 2368.574,3679.448 "/>
<polygon fill="#8ABFD0" points="1832.211,3719.472 1955.3,3735.865 1868.359,3636.665 "/>
<polygon fill="#7FB4C5" points="1832.211,3719.472 1715.148,3655.818 1868.359,3636.665 "/>
<polygon fill="#8ABFD0" points="1657.198,3519.363 1715.148,3655.818 1868.359,3636.665 "/>
<polygon fill="#6CA6B7" points="1962.293,3599.401 1955.3,3735.865 1868.359,3636.665 "/>
<polygon fill="#437E91" points="1692.122,3859.554 1835.224,3835.924 1668.232,3746.729 "/>
<polygon fill="#4D8697" points="1832.211,3719.472 1835.224,3835.924 1668.232,3746.729 "/>
<polygon fill="#5899AD" points="1832.211,3719.472 1715.148,3655.818 1668.232,3746.729 "/>
<polygon fill="#5899AD" points="1692.122,3859.554 1559.202,3757.364 1668.232,3746.729 "/>
<polygon fill="#7FB4C5" points="1602.065,3639.425 1559.202,3757.364 1668.232,3746.729 "/>
<polygon fill="#6CA6B7" points="1602.065,3639.425 1715.151,3655.87 1668.232,3746.729 "/>
<polygon fill="#6CA6B7" points="1602.065,3639.425 1715.151,3655.87 1657.198,3519.363 "/>
<polygon fill="#83BBCD" points="1602.065,3639.425 1559.202,3757.364 1448.093,3696.7 "/>
<polygon fill="#78A9B7" points="1602.065,3639.425 1411.383,3561.625 1448.093,3696.7 "/>
<polygon fill="#7FB4C5" points="1321.888,3679.448 1411.383,3561.625 1448.093,3696.7 "/>
<polygon fill="#8ABFD0" points="1361.913,4039.659 1545.04,3976.006 1558.163,4086.929 "/>
<polygon fill="#6CA6B7" points="1361.913,4039.659 1444.977,4146.105 1558.163,4086.929 "/>
<polygon fill="#7FB4C5" points="1361.913,4039.659 1444.977,4146.105 1247.966,4206.999 "/>
<polygon fill="#8ABFD0" points="1361.913,4039.659 1264.862,4006.023 1247.966,4206.999 "/>
<polyline fill="#80B4C4" points="1287.991,3926.835 1361.913,4039.659 1545.04,3976.006 1287.991,3926.835 "/>
<polyline fill="#80B4C4" points="1287.991,3926.835 1361.913,4039.659 1264.862,4006.023 1287.991,3926.835 "/>
<polyline fill="#6CA6B7" points="1361.913,4039.659 1264.862,4006.023 1287.991,3926.835 "/>
<polyline fill="#78A9B7" points="1287.991,3926.835 1391.932,3849.548 1545.04,3976.006 1287.991,3926.835 "/>
<polyline fill="#80B4C4" points="1287.991,3926.835 1391.932,3849.548 1294.881,3805.906 1287.991,3926.835 "/>
<polygon fill="#78A9B7" points="1448.093,3696.7 1294.881,3805.906 1391.932,3849.548 "/>
<polygon fill="#83BBCD" points="1448.093,3696.7 1294.881,3805.906 1321.888,3679.448 "/>
<polygon fill="#4D8697" points="1747.255,3299.234 1614.375,3401.45 1563.268,3271.977 "/>
<polygon fill="#6CA6B7" points="1447.075,3309.24 1614.375,3401.45 1563.268,3271.977 "/>
<polygon fill="#7FB4C5" points="1447.075,3309.24 1614.375,3401.45 1503.233,3462.088 "/>
<polygon fill="#83BBCD" points="1447.075,3309.24 1600.37,3182.322 1563.268,3271.977 "/>
<polygon fill="#5899AD" points="1747.255,3299.234 1600.175,3182.782 1563.268,3271.977 "/>
<polygon fill="#7FB4C5" points="1747.255,3299.234 1600.175,3182.782 1613.297,3071.859 "/>
<polygon fill="#6EA8BB" points="1747.255,3299.234 1760.275,3102.735 1613.297,3071.859 "/>
<polygon fill="#8ABFD0" points="1706.229,2924.013 1760.275,3102.735 1613.297,3071.859 "/>
<polygon fill="#7FB4C5" points="1706.229,2924.013 1510.126,2992.671 1613.297,3071.859 "/>
<polygon fill="#5F95A5" points="1747.255,3299.234 1760.275,3102.735 1833.436,3211.941 "/>
<polygon fill="#78A9B7" points="1877.338,3099.117 1760.275,3102.735 1833.436,3211.941 "/>
<polygon fill="#6EA8BB" points="1877.338,3099.117 1760.275,3102.735 1706.239,2924.056 "/>
<polygon fill="#7FB4C5" points="1877.338,3099.117 1870.345,2992.671 1706.239,2924.056 "/>
<polygon fill="#4E889A" points="1747.255,3299.234 1890.357,3322.864 1833.436,3211.941 "/>
<polygon fill="#6EA8BB" points="1967.395,3159.152 1890.357,3322.864 1833.436,3211.941 "/>
<polygon fill="#7FB4C5" points="1967.395,3159.152 1877.305,3099.111 1833.436,3211.941 "/>
<polygon fill="#78A9B7" points="1967.395,3159.152 1877.305,3099.111 1983.531,3061.854 "/>
<polygon fill="#8ABFD0" points="1870.333,2993.053 1877.305,3099.111 1983.531,3061.854 "/>
<polygon fill="#7FB4C5" points="1870.333,2993.053 2017.394,2939.018 1983.531,3061.854 "/>
<polygon fill="#6EA8BB" points="2097.478,3049.088 2017.394,2939.018 1983.531,3061.854 "/>
<polygon fill="#80B4C4" points="2097.478,3049.088 2017.394,2939.018 2139.629,2969.803 "/>
<polygon fill="#6EA8BB" points="2097.478,3049.088 2230.573,3062.712 2139.629,2969.803 "/>
<polygon fill="#8ABFD0" points="1967.395,3159.152 1890.357,3322.864 1993.537,3322.006 "/>
<polygon fill="#78A9B7" points="1967.395,3159.152 2070.472,3232.812 1993.537,3322.006 "/>
<polygon fill="#5F95A5" points="1967.395,3159.152 2070.472,3232.812 1983.531,3061.854 "/>
<polygon fill="#78A9B7" points="2097.478,3049.088 2070.472,3232.812 1983.531,3061.854 "/>
<polygon fill="#80B4C4" points="2097.478,3049.088 2070.472,3232.812 2173.651,3171.918 "/>
<polygon fill="#78A9B7" points="2097.478,3049.088 2230.573,3062.712 2173.651,3171.918 "/>
<polygon fill="#4D8697" points="2097.478,3349.264 2070.472,3232.812 1993.537,3322.006 "/>
<polygon fill="#5899AD" points="2097.478,3349.264 2070.472,3232.812 2168.645,3301.994 "/>
<polygon fill="#80B4C4" points="2097.478,3349.264 2210.561,3392.905 2168.645,3301.994 "/>
<polygon fill="#6EA8BB" points="2097.478,3349.264 2210.561,3392.905 2168.645,3301.994 "/>
<polygon fill="#6EA8BB" points="2173.651,3171.918 2070.472,3232.812 2168.645,3301.994 "/>
<polygon fill="#80B4C4" points="2173.651,3171.918 2260.592,3252.823 2168.645,3301.994 "/>
<polygon fill="#5899AD" points="1887.344,3439.316 1890.357,3322.864 1993.537,3322.006 "/>
<polygon fill="#4D8697" points="1887.344,3439.316 2010.434,3422.923 1993.537,3322.006 "/>
<polygon fill="#437E91" points="1962.293,3599.397 2010.434,3422.923 2123.62,3442.076 "/>
<polygon fill="#437E91" points="2097.478,3349.264 2010.434,3422.923 1993.537,3322.006 "/>
<polygon fill="#4D8697" points="2097.478,3349.264 2010.434,3422.923 2123.62,3442.076 "/>
<polygon fill="#5899AD" points="2097.478,3349.264 2210.561,3392.905 2123.62,3442.076 "/>
<polygon fill="#5899AD" points="1887.344,3439.316 2010.434,3422.923 1923.493,3522.123 "/>
<polygon fill="#6EA8BB" points="1887.344,3439.316 1770.281,3502.97 1923.493,3522.123 "/>
<polygon fill="#7FB4C5" points="1868.359,3636.665 1770.281,3502.97 1923.493,3522.123 "/>
<polygon fill="#4D8697" points="1962.293,3599.397 2010.434,3422.923 1923.493,3522.123 "/>
<polygon fill="#8ABFD0" points="1962.293,3599.397 1868.359,3636.665 1923.493,3522.123 "/>
<polygon fill="#437E91" points="1747.255,3299.234 1890.357,3322.864 1723.366,3412.059 "/>
<polygon fill="#4D8697" points="1887.344,3439.316 1890.357,3322.864 1723.366,3412.059 "/>
<polygon fill="#5899AD" points="1887.344,3439.316 1770.281,3502.97 1723.366,3412.059 "/>
<polygon fill="#5899AD" points="1747.255,3299.234 1614.336,3401.424 1723.366,3412.059 "/>
<polygon fill="#7FB4C5" points="1657.198,3519.363 1614.336,3401.424 1723.366,3412.059 "/>
<polygon fill="#6CA6B7" points="1657.198,3519.363 1770.284,3502.918 1723.366,3412.059 "/>
<polygon fill="#6CA6B7" points="1657.198,3519.363 1770.284,3502.918 1868.359,3636.665 "/>
<polygon fill="#83BBCD" points="1657.198,3519.363 1614.336,3401.424 1503.233,3462.088 "/>
<polygon fill="#5899AD" points="1657.198,3519.363 1602.065,3639.425 1503.233,3462.088 "/>
<polygon fill="#4E889A" points="1411.383,3561.625 1602.065,3639.425 1503.233,3462.088 "/>
<polygon fill="#8ABFD0" points="1417.057,3119.129 1600.175,3182.782 1613.297,3071.859 "/>
<polygon fill="#6CA6B7" points="1417.057,3119.129 1510.123,2992.671 1613.297,3071.859 "/>
<polygon fill="#7FB4C5" points="1417.057,3119.129 1510.123,2992.671 1343.139,2961.795 "/>
<polygon fill="#8ABFD0" points="1417.057,3119.129 1320.011,3152.765 1343.139,2961.795 "/>
<polyline fill="#80B4C4" points="1343.139,3231.953 1417.057,3119.129 1600.175,3182.782 1343.139,3231.953 "/>
<polyline fill="#80B4C4" points="1343.139,3231.953 1417.057,3119.129 1320.011,3152.765 1343.139,3231.953 "/>
<polyline fill="#6CA6B7" points="1417.057,3119.129 1320.011,3152.765 1343.139,3231.953 "/>
<polyline fill="#78A9B7" points="1343.139,3231.953 1447.075,3309.24 1600.175,3182.782 1343.139,3231.953 "/>
<polyline fill="#80B4C4" points="1343.139,3231.953 1447.075,3309.24 1350.029,3352.882 1343.139,3231.953 "/>
<polygon fill="#78A9B7" points="1503.233,3462.088 1350.029,3352.882 1447.075,3309.24 "/>
<polygon fill="#4D8697" points="1503.233,3462.088 1350.029,3352.882 1377.034,3479.34 "/>
<polygon fill="#437E91" points="1503.233,3462.088 1411.383,3561.625 1377.034,3479.34 "/>
<polygon fill="#4E889A" points="1321.888,3679.448 1411.383,3561.625 1377.034,3479.34 "/>
<polygon fill="#4D8697" points="2693.878,3379.281 2826.755,3481.497 2877.864,3352.023 "/>
<polygon fill="#6CA6B7" points="2994.063,3389.287 2826.755,3481.497 2877.864,3352.023 "/>
<polygon fill="#7FB4C5" points="2994.063,3389.287 2826.755,3481.497 2937.902,3542.135 "/>
<polygon fill="#83BBCD" points="2994.063,3389.287 2840.761,3262.369 2877.864,3352.023 "/>
<polygon fill="#5899AD" points="2693.878,3379.281 2840.955,3262.829 2877.864,3352.023 "/>
<polygon fill="#7FB4C5" points="2693.878,3379.281 2840.955,3262.829 2827.833,3151.906 "/>
<polygon fill="#6EA8BB" points="2693.878,3379.281 2680.859,3182.782 2827.833,3151.906 "/>
<polygon fill="#8ABFD0" points="2743.91,2984.048 2680.859,3182.782 2827.833,3151.906 "/>
<polygon fill="#7FB4C5" points="2743.91,2984.048 2941.015,3092.729 2827.833,3151.906 "/>
<polygon fill="#5F95A5" points="2693.878,3379.281 2680.859,3182.782 2607.698,3291.988 "/>
<polygon fill="#78A9B7" points="2563.796,3179.164 2680.859,3182.782 2607.698,3291.988 "/>
<polygon fill="#6EA8BB" points="2563.796,3179.164 2680.859,3182.782 2743.9,2984.091 "/>
<polygon fill="#7FB4C5" points="2563.796,3179.164 2570.789,3072.718 2743.9,2984.091 "/>
<polygon fill="#4E889A" points="2693.878,3379.281 2550.776,3402.911 2607.698,3291.988 "/>
<polygon fill="#6EA8BB" points="2473.739,3239.199 2550.776,3402.911 2607.698,3291.988 "/>
<polygon fill="#7FB4C5" points="2473.739,3239.199 2563.829,3179.158 2607.698,3291.988 "/>
<polygon fill="#78A9B7" points="2473.739,3239.199 2563.829,3179.158 2457.603,3141.9 "/>
<polygon fill="#8ABFD0" points="2570.801,3073.1 2563.829,3179.158 2457.603,3141.9 "/>
<polygon fill="#7FB4C5" points="2570.801,3073.1 2433.746,2969.035 2457.603,3141.9 "/>
<polygon fill="#5899AD" points="2343.656,3129.135 2433.746,2969.035 2457.603,3141.9 "/>
<polygon fill="#80B4C4" points="2343.656,3129.135 2433.746,2969.035 2230.573,3062.712 "/>
<polygon fill="#6EA8BB" points="2343.656,3129.135 2173.651,3171.918 2230.573,3062.712 "/>
<polygon fill="#8ABFD0" points="2473.739,3239.199 2550.776,3402.911 2447.597,3402.053 "/>
<polygon fill="#78A9B7" points="2473.739,3239.199 2370.662,3312.858 2447.597,3402.053 "/>
<polygon fill="#5F95A5" points="2473.739,3239.199 2370.662,3312.858 2457.603,3141.9 "/>
<polygon fill="#78A9B7" points="2343.656,3129.135 2370.662,3312.858 2457.603,3141.9 "/>
<polygon fill="#6EA8BB" points="2343.656,3129.135 2370.662,3312.858 2260.592,3252.814 "/>
<polygon fill="#78A9B7" points="2343.656,3129.135 2173.651,3171.918 2260.592,3252.814 "/>
<polygon fill="#5F95A5" points="2343.656,3429.311 2370.662,3312.858 2447.597,3402.053 "/>
<polygon fill="#4D8697" points="2343.656,3429.311 2370.662,3312.858 2210.561,3392.905 "/>
<polygon fill="#80B4C4" points="2343.656,3429.311 2230.573,3472.952 2210.561,3392.905 "/>
<polygon fill="#437E91" points="2343.656,3429.311 2230.573,3472.952 2210.561,3392.905 "/>
<polygon fill="#4D8697" points="2123.6,3442.047 2230.573,3472.952 2210.561,3392.905 "/>
<polygon fill="#5F95A5" points="2123.6,3442.047 2230.573,3472.952 1962.293,3599.397 "/>
<polygon fill="#5899AD" points="2260.592,3252.814 2370.662,3312.858 2210.561,3392.905 "/>
<polygon fill="#78A9B7" points="2260.592,3252.814 2168.645,3301.994 2210.561,3392.905 "/>
<polygon fill="#5899AD" points="2553.79,3519.363 2550.776,3402.911 2447.597,3402.053 "/>
<polygon fill="#80B4C4" points="2553.79,3519.363 2430.7,3502.97 2447.597,3402.053 "/>
<polygon fill="#6CA6B7" points="2368.574,3679.448 2430.7,3502.97 2317.514,3522.123 "/>
<polygon fill="#5899AD" points="2368.574,3679.448 2192.883,3619.958 2317.514,3522.123 "/>
<polygon fill="#78A9B7" points="2343.656,3429.311 2430.7,3502.97 2447.597,3402.053 "/>
<polygon fill="#80B4C4" points="2343.656,3429.311 2430.7,3502.97 2317.514,3522.123 "/>
<polygon fill="#5899AD" points="2343.656,3429.311 2230.573,3472.952 2317.514,3522.123 "/>
<polygon fill="#7FB4C5" points="2192.883,3619.958 2230.573,3472.952 2317.514,3522.123 "/>
<polygon fill="#78A9B7" points="2192.883,3619.958 2230.573,3472.952 1962.293,3599.397 "/>
<polygon fill="#4D8697" points="2553.79,3519.363 2430.7,3502.97 2517.641,3602.17 "/>
<polygon fill="#5F95A5" points="2553.79,3519.363 2670.853,3583.017 2517.641,3602.17 "/>
<polygon fill="#6CA6B7" points="2615.719,3735.865 2670.853,3583.017 2517.641,3602.17 "/>
<polygon fill="#5899AD" points="2615.719,3735.865 2670.853,3583.017 2728.802,3719.472 "/>
<polygon fill="#6EA8BB" points="2615.719,3735.865 2462.508,3716.712 2517.641,3602.17 "/>
<polygon fill="#5899AD" points="2368.574,3679.448 2430.7,3502.97 2517.641,3602.17 "/>
<polygon fill="#8ABFD0" points="2368.574,3679.448 2462.508,3716.712 2517.641,3602.17 "/>
<polygon fill="#437E91" points="2693.878,3379.281 2550.776,3402.911 2717.768,3492.105 "/>
<polygon fill="#4D8697" points="2553.79,3519.363 2550.776,3402.911 2717.768,3492.105 "/>
<polygon fill="#5899AD" points="2553.79,3519.363 2670.853,3583.017 2717.768,3492.105 "/>
<polygon fill="#5899AD" points="2693.878,3379.281 2826.794,3481.471 2717.768,3492.105 "/>
<polygon fill="#7FB4C5" points="2783.932,3599.41 2826.794,3481.471 2717.768,3492.105 "/>
<polygon fill="#6CA6B7" points="2783.932,3599.41 2670.85,3582.965 2717.768,3492.105 "/>
<polygon fill="#6CA6B7" points="2783.932,3599.41 2670.85,3582.965 2728.802,3719.472 "/>
<polygon fill="#6CA6B7" points="2783.932,3599.41 2901.737,3647.3 2728.802,3719.472 "/>
<polygon fill="#83BBCD" points="2783.932,3599.41 2826.794,3481.471 2937.902,3542.135 "/>
<polygon fill="#5899AD" points="2783.932,3599.41 2901.737,3647.3 2937.902,3542.135 "/>
<polygon fill="#8ABFD0" points="3024.082,3199.176 2840.955,3262.829 2827.833,3151.906 "/>
<polygon fill="#6CA6B7" points="3024.082,3199.176 2941.019,3092.729 2827.833,3151.906 "/>
<polygon fill="#7FB4C5" points="3024.082,3199.176 2941.019,3092.729 3138.029,3031.836 "/>
<polygon fill="#8ABFD0" points="3024.082,3199.176 3121.133,3232.812 3138.029,3031.836 "/>
<polyline fill="#80B4C4" points="3098.004,3312 3024.082,3199.176 2840.955,3262.829 3098.004,3312 "/>
<polyline fill="#80B4C4" points="3098.004,3312 3024.082,3199.176 3121.133,3232.812 3098.004,3312 "/>
<polyline fill="#6CA6B7" points="3024.082,3199.176 3121.133,3232.812 3098.004,3312 "/>
<polyline fill="#78A9B7" points="3098.004,3312 2994.063,3389.287 2840.955,3262.829 3098.004,3312 "/>
<polyline fill="#80B4C4" points="3098.004,3312 2994.063,3389.287 3091.114,3432.929 3098.004,3312 "/>
<polygon fill="#78A9B7" points="2937.902,3542.135 3091.114,3432.929 2994.063,3389.287 "/>
<polygon fill="#83BBCD" points="2937.902,3542.135 3091.114,3432.929 3064.107,3559.387 "/>
<polygon fill="#4D8697" points="2937.902,3542.135 2901.737,3647.3 3064.107,3559.387 "/>
</svg>
